<svg width="22" height="26" viewBox="0 0 22 26" fill="none" xmlns="http://www.w3.org/2000/svg">
<path d="M20.8057 21.422C21.0856 21.0423 21.2802 20.6133 21.3778 20.1611C21.4662 19.7159 21.5029 19.2631 21.4874 18.8105L21.4869 1.86093C21.4869 1.60251 21.5415 1.33465 21.4617 1.08884C21.4214 0.964569 21.3505 0.850883 21.2546 0.756931C21.1588 0.66298 21.0407 0.591384 20.91 0.547901C20.7792 0.504418 20.6393 0.490261 20.5016 0.50657C20.4067 0.514326 19.5631 0.654472 19.4618 0.673767L7.78873 2.87771L7.78425 2.87854C7.51827 2.92257 7.26816 3.0278 7.05644 3.18476C6.83606 3.36742 6.69608 3.62021 6.66369 3.89403C6.6446 4.01599 6.63554 4.13914 6.63657 4.2624V17.9299C6.66864 18.249 6.57725 18.5683 6.37904 18.8298C6.15934 19.0601 5.85563 19.2053 5.52746 19.2369L4.76537 19.3807C4.03126 19.4946 3.30862 19.6657 2.60503 19.8924C2.12424 20.055 1.68878 20.317 1.33101 20.6587C0.771076 21.2227 0.472934 21.9715 0.501934 22.7408C0.530934 23.5102 0.884712 24.2374 1.48572 24.7631C1.88232 25.1073 2.37263 25.3426 2.90279 25.4431C3.60477 25.5442 4.32143 25.5103 5.0089 25.3433C5.48891 25.2599 5.95023 25.1007 6.37306 24.8723C6.79865 24.6384 7.16519 24.3212 7.44758 23.9424C7.72752 23.5627 7.92219 23.1337 8.01979 22.6814C8.11505 22.2391 8.15885 21.7884 8.1504 21.3372L8.15019 9.79922C8.15019 9.5802 8.09809 9.35646 8.14563 9.14266C8.16963 9.03474 8.2186 8.93304 8.28911 8.84472C8.35961 8.7564 8.44993 8.68361 8.55372 8.63146C8.76203 8.52678 8.99937 8.52218 9.22847 8.47895C10.9476 8.15453 18.6437 6.70233 19.0448 6.62908C19.677 6.51544 19.9738 6.68423 19.9738 7.30367L19.9736 15.4031C20.014 15.722 19.93 16.0437 19.7371 16.3093C19.5175 16.5396 19.2137 16.6848 18.8856 16.7164L18.1235 16.8603C17.3894 16.9741 16.6667 17.1452 15.9631 17.3719C15.4823 17.5346 15.0468 17.7965 14.689 18.1382C14.405 18.4142 14.1832 18.7408 14.0368 19.0987C13.8905 19.4565 13.8225 19.8382 13.8369 20.2211C13.8514 20.604 13.9479 20.9803 14.1209 21.3276C14.2939 21.6748 14.5397 21.986 14.8438 22.2426C15.241 22.5848 15.7313 22.8178 16.2609 22.9159C16.9629 23.0171 17.6795 22.9831 18.367 22.8161C18.8466 22.7351 19.308 22.5782 19.7312 22.3519C20.1567 22.118 20.5233 21.8008 20.8057 21.422Z" fill="#222222"/>
</svg>
