<svg width="20" height="20" viewBox="0 0 20 20" fill="none" xmlns="http://www.w3.org/2000/svg">
<path fill-rule="evenodd" clip-rule="evenodd" d="M0 10.4877C0 7.92829 1.97828 5.85352 4.4186 5.85352H15.5814C18.0217 5.85352 20 7.92829 20 10.4877V15.3657C20 17.9251 18.0217 19.9999 15.5814 19.9999H4.4186C1.97828 19.9999 0 17.9251 0 15.3657V10.4877ZM4.4186 7.31693C2.74891 7.31693 1.39535 8.73652 1.39535 10.4877V15.3657C1.39535 17.1169 2.74891 18.5364 4.4186 18.5364H15.5814C17.2511 18.5364 18.6047 17.1169 18.6047 15.3657V10.4877C18.6047 8.73652 17.2511 7.31693 15.5814 7.31693H4.4186Z" fill="#414141"/>
<path fill-rule="evenodd" clip-rule="evenodd" d="M5.58139 3.65854C5.58139 1.63798 7.14319 0 9.06976 0H10.9302C12.8568 0 14.4186 1.63798 14.4186 3.65854V7.31707H5.58139V3.65854ZM9.06976 1.46341C7.91382 1.46341 6.97674 2.4462 6.97674 3.65854V5.85366H13.0233V3.65854C13.0233 2.4462 12.0862 1.46341 10.9302 1.46341H9.06976Z" fill="#414141"/>
<path fill-rule="evenodd" clip-rule="evenodd" d="M6.27906 9.75586C6.66438 9.75586 6.97674 10.0835 6.97674 10.4876V15.3656C6.97674 15.7697 6.66438 16.0973 6.27906 16.0973C5.89375 16.0973 5.58139 15.7697 5.58139 15.3656V10.4876C5.58139 10.0835 5.89375 9.75586 6.27906 9.75586Z" fill="#414141"/>
<path fill-rule="evenodd" clip-rule="evenodd" d="M13.7209 9.75586C14.1062 9.75586 14.4186 10.0835 14.4186 10.4876V15.3656C14.4186 15.7697 14.1062 16.0973 13.7209 16.0973C13.3356 16.0973 13.0233 15.7697 13.0233 15.3656V10.4876C13.0233 10.0835 13.3356 9.75586 13.7209 9.75586Z" fill="#414141"/>
</svg>
