<svg width="28" height="22" viewBox="0 0 28 22" fill="none" xmlns="http://www.w3.org/2000/svg">
<path d="M23.3716 2.25872C21.5977 1.42527 19.725 0.833999 17.8013 0.5C17.5381 0.982913 17.2999 1.47977 17.0878 1.98848C15.0387 1.67161 12.9549 1.67161 10.9058 1.98848C10.6936 1.47982 10.4554 0.982972 10.1923 0.5C8.26739 0.836819 6.39344 1.4295 4.61772 2.26308C1.09248 7.6155 0.136837 12.835 0.614656 17.9804C2.67913 19.5457 4.98986 20.7362 7.44642 21.5C7.99956 20.7365 8.48902 19.9266 8.90961 19.0788C8.11076 18.7726 7.33974 18.3948 6.60545 17.9499C6.79871 17.806 6.98771 17.6578 7.17034 17.514C9.30694 18.5451 11.6389 19.0798 14 19.0798C16.361 19.0798 18.693 18.5451 20.8296 17.514C21.0144 17.6687 21.2034 17.8169 21.3945 17.9499C20.6588 18.3955 19.8864 18.774 19.0861 19.0809C19.5062 19.9284 19.9957 20.7376 20.5493 21.5C23.0079 20.7392 25.3205 19.5493 27.3853 17.9826C27.9459 12.0156 26.4275 6.84402 23.3716 2.25872ZM9.51485 14.816C8.18332 14.816 7.08327 13.576 7.08327 12.0504C7.08327 10.5249 8.1451 9.27397 9.5106 9.27397C10.8761 9.27397 11.9677 10.5249 11.9443 12.0504C11.9209 13.576 10.8719 14.816 9.51485 14.816ZM18.4851 14.816C17.1515 14.816 16.0557 13.576 16.0557 12.0504C16.0557 10.5249 17.1175 9.27397 18.4851 9.27397C19.8527 9.27397 20.9358 10.5249 20.9124 12.0504C20.8891 13.576 19.8421 14.816 18.4851 14.816Z" fill="#222222"/>
</svg>
