<svg width="20" height="20" viewBox="0 0 20 20" fill="none" xmlns="http://www.w3.org/2000/svg">
<path d="M9.6875 1.25C5.02747 1.25 1.25 5.02747 1.25 9.6875C1.25 14.3475 5.02747 18.125 9.6875 18.125C14.3475 18.125 18.125 14.3475 18.125 9.6875C18.125 5.02747 14.3475 1.25 9.6875 1.25ZM9.6875 2.47259C11.5256 2.47259 13.2034 3.16025 14.4775 4.29172C13.5413 5.52655 12.1192 6.34878 10.6941 6.90523C9.88736 5.43599 8.98323 4.02236 7.98777 2.67383C8.54451 2.53963 9.11523 2.47208 9.68792 2.47259H9.6875ZM6.61794 3.15603C7.55872 4.56341 8.46997 5.86827 9.30233 7.34525C7.19717 7.89073 4.81822 8.21811 2.62067 8.22359C3.08389 5.97584 4.59378 4.10947 6.61794 3.15645V3.15603ZM15.2778 5.12619C16.3203 6.40023 16.8938 7.99361 16.9024 9.63983C15.2335 9.31077 13.5738 9.2247 11.8838 9.39514C11.6939 8.92137 11.4636 8.47123 11.243 7.98608C12.6997 7.39841 14.2572 6.39266 15.2778 5.12577V5.12619ZM9.88831 8.46153C10.0689 8.84544 10.2781 9.25297 10.4747 9.66936C8.12488 10.7055 5.62527 12.0901 4.328 14.5175C3.08263 13.1394 2.41893 11.3328 2.47597 9.47614C4.99245 9.46433 7.46253 9.14961 9.88831 8.46153ZM13.7012 10.4287C14.7512 10.429 15.7968 10.5636 16.8125 10.8295C16.6559 11.8067 16.2999 12.7412 15.7667 13.5749C15.2335 14.4086 14.5344 15.1236 13.713 15.6756C13.3258 13.9143 12.9566 12.2289 12.304 10.5296C12.7665 10.4622 13.2334 10.4283 13.7008 10.4283L13.7012 10.4287ZM16.8501 10.5595C16.845 10.6009 16.8404 10.6414 16.8345 10.6819C16.8404 10.6409 16.8455 10.6004 16.8501 10.5595ZM10.9692 10.859C11.634 12.5773 12.1559 14.48 12.506 16.3316C11.6147 16.7098 10.6562 16.9041 9.68792 16.9028C8.08389 16.9051 6.52524 16.3705 5.26034 15.3841C6.56689 13.2646 8.59063 11.6606 10.9687 10.8595L10.9692 10.859Z" fill="#222222"/>
</svg>
