<svg width="20" height="30" viewBox="0 0 20 30" fill="none" xmlns="http://www.w3.org/2000/svg">
<path d="M1 6C1 3.51472 3.01472 1.5 5.5 1.5H10V10.5H5.5C3.01472 10.5 1 8.48528 1 6V6Z" stroke="#222222" stroke-width="2"/>
<path d="M19 6C19 3.51472 16.9853 1.5 14.5 1.5H10V10.5H14.5C16.9853 10.5 19 8.48528 19 6V6Z" stroke="#222222" stroke-width="2"/>
<path d="M19 15C19 12.5147 16.9853 10.5 14.5 10.5V10.5C12.0147 10.5 10 12.5147 10 15V15C10 17.4853 12.0147 19.5 14.5 19.5V19.5C16.9853 19.5 19 17.4853 19 15V15Z" stroke="#222222" stroke-width="2"/>
<path d="M1 15C1 12.5147 3.01472 10.5 5.5 10.5H10V19.5H5.5C3.01472 19.5 1 17.4853 1 15V15Z" stroke="#222222" stroke-width="2"/>
<path d="M1 24C1 21.5147 3.01472 19.5 5.5 19.5H10V24C10 26.4853 7.98528 28.5 5.5 28.5V28.5C3.01472 28.5 1 26.4853 1 24V24Z" stroke="#222222" stroke-width="2"/>
</svg>
