<svg width="20" height="20" viewBox="0 0 20 20" fill="none" xmlns="http://www.w3.org/2000/svg">
<g clip-path="url(#clip0_23_658)">
<path d="M10 18.75C14.8325 18.75 18.75 14.8325 18.75 10C18.75 5.16751 14.8325 1.25 10 1.25C5.16751 1.25 1.25 5.16751 1.25 10C1.25 14.8325 5.16751 18.75 10 18.75Z" fill="#222222"/>
<path d="M12.1344 7.76258C12.6456 7.76258 13.06 7.34818 13.06 6.83698C13.06 6.32578 12.6456 5.91138 12.1344 5.91138C11.6232 5.91138 11.2088 6.32578 11.2088 6.83698C11.2088 7.34818 11.6232 7.76258 12.1344 7.76258Z" fill="#FBFBFB"/>
<path d="M13.1013 8.36963H8.86428V8.09198C8.86428 7.54668 9.40958 7.53634 9.68723 7.53634C10.0059 7.53634 10.1502 7.56735 10.1502 7.56735V6.06544C9.92498 6.03738 9.6982 6.02368 9.47124 6.02444C8.58663 6.02444 6.95107 6.27109 6.95107 8.14331V8.38134H6.17944V9.76992H6.95107V12.7014H6.23111V14.09H9.70721V12.7H8.86359V9.76854H11.1767V12.7H10.4578V14.0886H13.8216V12.7H13.1013V8.36963Z" fill="#FBFBFB"/>
</g>
<defs>
<clipPath id="clip0_23_658">
<rect width="17.5" height="17.5" fill="white" transform="translate(1.25 1.25)"/>
</clipPath>
</defs>
</svg>
