<svg width="21" height="20" viewBox="0 0 21 20" fill="none" xmlns="http://www.w3.org/2000/svg">
<path d="M10.5 1.66667C9.40567 1.66667 8.32204 1.88222 7.31099 2.30101C6.29994 2.71979 5.38129 3.33362 4.60746 4.10744C3.04466 5.67025 2.16669 7.78986 2.16669 10C2.16669 13.6833 4.55835 16.8083 7.86669 17.9167C8.28335 17.9833 8.41669 17.725 8.41669 17.5V16.0917C6.10835 16.5917 5.61669 14.975 5.61669 14.975C5.23335 14.0083 4.69169 13.75 4.69169 13.75C3.93335 13.2333 4.75002 13.25 4.75002 13.25C5.58335 13.3083 6.02502 14.1083 6.02502 14.1083C6.75002 15.375 7.97502 15 8.45002 14.8C8.52502 14.2583 8.74169 13.8917 8.97502 13.6833C7.12502 13.475 5.18335 12.7583 5.18335 9.58333C5.18335 8.65833 5.50002 7.91667 6.04169 7.325C5.95835 7.11667 5.66669 6.25 6.12502 5.125C6.12502 5.125 6.82502 4.9 8.41669 5.975C9.07502 5.79167 9.79169 5.7 10.5 5.7C11.2084 5.7 11.925 5.79167 12.5834 5.975C14.175 4.9 14.875 5.125 14.875 5.125C15.3334 6.25 15.0417 7.11667 14.9584 7.325C15.5 7.91667 15.8167 8.65833 15.8167 9.58333C15.8167 12.7667 13.8667 13.4667 12.0084 13.675C12.3084 13.9333 12.5834 14.4417 12.5834 15.2167V17.5C12.5834 17.725 12.7167 17.9917 13.1417 17.9167C16.45 16.8 18.8334 13.6833 18.8334 10C18.8334 8.90565 18.6178 7.82202 18.199 6.81097C17.7802 5.79993 17.1664 4.88127 16.3926 4.10744C15.6188 3.33362 14.7001 2.71979 13.689 2.30101C12.678 1.88222 11.5944 1.66667 10.5 1.66667Z" fill="black"/>
</svg>
