<svg width="20" height="20" viewBox="0 0 20 20" fill="none" xmlns="http://www.w3.org/2000/svg">
<path d="M4.47876 16.0034H7.0166V8.37891H4.47876V16.0034ZM7.1814 6.02783C7.17407 5.64697 7.04224 5.33203 6.78589 5.08301C6.52954 4.83398 6.18896 4.70947 5.76416 4.70947C5.33936 4.70947 4.99329 4.83398 4.72595 5.08301C4.45862 5.33203 4.32495 5.64697 4.32495 6.02783C4.32495 6.40137 4.45496 6.71448 4.71497 6.96716C4.97498 7.21985 5.31372 7.34619 5.7312 7.34619H5.74219C6.17432 7.34619 6.52222 7.21985 6.78589 6.96716C7.04956 6.71448 7.1814 6.40137 7.1814 6.02783ZM13.6084 16.0034H16.1462V11.6309C16.1462 10.5029 15.8789 9.64966 15.3442 9.07104C14.8096 8.49243 14.1028 8.20312 13.2239 8.20312C12.2278 8.20312 11.4624 8.63159 10.9277 9.48853H10.9497V8.37891H8.41187C8.43384 8.8623 8.43384 11.4038 8.41187 16.0034H10.9497V11.7407C10.9497 11.4624 10.9753 11.2573 11.0266 11.1255C11.1365 10.8691 11.3013 10.6512 11.521 10.4718C11.7407 10.2924 12.0117 10.2026 12.334 10.2026C13.1836 10.2026 13.6084 10.7776 13.6084 11.9275V16.0034ZM18.75 5.03906V15.5859C18.75 16.4575 18.4406 17.2028 17.8217 17.8217C17.2028 18.4406 16.4575 18.75 15.5859 18.75H5.03906C4.16748 18.75 3.42224 18.4406 2.80334 17.8217C2.18445 17.2028 1.875 16.4575 1.875 15.5859V5.03906C1.875 4.16748 2.18445 3.42224 2.80334 2.80334C3.42224 2.18445 4.16748 1.875 5.03906 1.875H15.5859C16.4575 1.875 17.2028 2.18445 17.8217 2.80334C18.4406 3.42224 18.75 4.16748 18.75 5.03906Z" fill="#222222"/>
</svg>
