<svg width="20" height="18" viewBox="0 0 20 18" fill="none" xmlns="http://www.w3.org/2000/svg">
<path fill-rule="evenodd" clip-rule="evenodd" d="M2.55813 2.04545C1.91594 2.04545 1.39534 2.62206 1.39534 3.33333V14.6667C1.39534 15.3779 1.91594 15.9545 2.55813 15.9545H17.4418C18.084 15.9545 18.6046 15.3779 18.6046 14.6667V3.33333C18.6046 2.62206 18.084 2.04545 17.4418 2.04545H2.55813ZM0 3.33333C0 1.76853 1.14531 0.5 2.55813 0.5H17.4418C18.8546 0.5 19.9999 1.76853 19.9999 3.33333V14.6667C19.9999 16.2315 18.8546 17.5 17.4418 17.5H2.55813C1.14531 17.5 0 16.2315 0 14.6667V3.33333Z" fill="#222222"/>
<path fill-rule="evenodd" clip-rule="evenodd" d="M0.536474 4.5948C0.70636 4.21175 1.12444 4.05377 1.47028 4.24193L9.8973 8.82687C9.96197 8.86205 10.0377 8.86205 10.1024 8.82687L18.5294 4.24193C18.8752 4.05377 19.2933 4.21175 19.4632 4.5948C19.6331 4.97785 19.4904 5.4409 19.1446 5.62906L10.7176 10.214C10.2649 10.4603 9.73475 10.4603 9.28209 10.214L0.855065 5.62906C0.509226 5.4409 0.366588 4.97785 0.536474 4.5948Z" fill="#222222"/>
<path fill-rule="evenodd" clip-rule="evenodd" d="M13.3654 9.13122C13.2958 9.07519 13.2038 9.06639 13.1265 9.10836L10.7163 10.4164C10.2644 10.6616 9.73557 10.6616 9.2837 10.4164L6.8735 9.10836C6.79618 9.06639 6.70424 9.07519 6.63456 9.13122L1.10757 13.575C0.795757 13.8257 0.359483 13.749 0.133127 13.4036C-0.0932279 13.0583 -0.0239483 12.5751 0.287868 12.3244L5.81485 7.88055C6.30265 7.48835 6.94619 7.42679 7.48748 7.72056L9.89767 9.02861C9.96222 9.06364 10.0378 9.06364 10.1023 9.02861L12.5125 7.72056C13.0538 7.42679 13.6974 7.48835 14.1851 7.88055L19.7121 12.3244C20.0239 12.5751 20.0932 13.0583 19.8669 13.4036C19.6405 13.749 19.2042 13.8257 18.8924 13.575L13.3654 9.13122Z" fill="#222222"/>
</svg>
