<svg width="156" height="27" viewBox="0 0 156 27" fill="none" xmlns="http://www.w3.org/2000/svg">
<path d="M7.77832 19.3545C6.99772 19.3545 6.26009 19.2184 5.56543 18.9463C4.87077 18.6742 4.26562 18.2767 3.75 17.7539C3.22721 17.224 2.81543 16.583 2.51465 15.8311C2.22103 15.0791 2.07422 14.2305 2.07422 13.2852C2.07422 11.9316 2.30339 10.6676 2.76172 9.49316C3.22005 8.31868 3.85026 7.26953 4.65234 6.3457C5.42578 5.45768 6.35319 4.74512 7.43457 4.20801C8.52311 3.6709 9.6582 3.40234 10.8398 3.40234C11.735 3.40234 12.5192 3.50618 13.1924 3.71387C13.8727 3.92155 14.4313 4.17936 14.8682 4.4873L15.4697 3.75684H16.3291L15.1689 9.19238H14.2881V8.7627C14.2881 8.17546 14.2415 7.61686 14.1484 7.08691C14.0553 6.5498 13.8763 6.06641 13.6113 5.63672C13.3535 5.22135 12.999 4.89193 12.5479 4.64844C12.1038 4.39779 11.5345 4.27246 10.8398 4.27246C9.95898 4.27246 9.139 4.50879 8.37988 4.98145C7.62793 5.44694 6.97624 6.06999 6.4248 6.85059C5.88053 7.6097 5.44368 8.54427 5.11426 9.6543C4.78483 10.7643 4.62012 11.8958 4.62012 13.0488C4.62012 14.5742 4.99251 15.8132 5.7373 16.7656C6.48926 17.7109 7.49544 18.1836 8.75586 18.1836C9.80859 18.1836 10.7754 17.8721 11.6562 17.249C12.5443 16.626 13.2676 15.7917 13.8262 14.7461L14.5996 15.1543C13.6973 16.694 12.6911 17.779 11.5811 18.4092C10.471 19.0394 9.20345 19.3545 7.77832 19.3545ZM22.1733 17.582H22.0981C21.9405 17.7109 21.7508 17.8757 21.5288 18.0762C21.3139 18.2695 21.0597 18.4557 20.7661 18.6348C20.4868 18.8138 20.1824 18.9678 19.853 19.0967C19.5235 19.2327 19.1655 19.3008 18.7788 19.3008C17.7403 19.3008 16.9239 18.9284 16.3295 18.1836C15.7423 17.4388 15.4487 16.4219 15.4487 15.1328C15.4487 14.2448 15.6134 13.3818 15.9428 12.5439C16.2722 11.7061 16.727 10.9541 17.3071 10.2881C17.8585 9.65072 18.5138 9.13867 19.2729 8.75195C20.032 8.35807 20.8126 8.16113 21.6147 8.16113C22.1232 8.16113 22.6065 8.22917 23.0649 8.36523C23.5304 8.5013 23.8956 8.65527 24.1606 8.82715L26.1264 8.32227L26.2553 8.4834L24.6225 15.4121C24.5652 15.6341 24.5043 15.9062 24.4399 16.2285C24.3826 16.5436 24.3539 16.7764 24.3539 16.9268C24.3539 17.335 24.4399 17.6107 24.6118 17.7539C24.7836 17.8971 25.0737 17.9688 25.4819 17.9688C25.6179 17.9688 25.8113 17.9473 26.062 17.9043C26.3126 17.8613 26.506 17.8148 26.642 17.7646L26.4809 18.4521C25.8364 18.71 25.3565 18.8962 25.0414 19.0107C24.7263 19.1253 24.3432 19.1826 23.892 19.1826C23.3764 19.1826 22.9682 19.0322 22.6674 18.7314C22.3666 18.4307 22.2019 18.0475 22.1733 17.582ZM23.7094 10.793C23.7094 10.5566 23.6843 10.3311 23.6342 10.1162C23.5841 9.90137 23.4802 9.70085 23.3227 9.51465C23.1795 9.33561 22.9825 9.19238 22.7319 9.08496C22.4812 8.97754 22.1661 8.92383 21.7866 8.92383C21.2638 8.92383 20.7553 9.0957 20.2612 9.43945C19.767 9.7832 19.323 10.2451 18.9291 10.8252C18.5567 11.3695 18.2524 12.0283 18.0161 12.8018C17.7797 13.5752 17.6616 14.3594 17.6616 15.1543C17.6616 15.5911 17.6866 15.9779 17.7368 16.3145C17.7869 16.651 17.8836 16.959 18.0268 17.2383C18.1629 17.5104 18.3598 17.7217 18.6176 17.8721C18.8754 18.0225 19.2013 18.0977 19.5952 18.0977C19.9962 18.0977 20.4151 17.9867 20.852 17.7646C21.296 17.5355 21.7937 17.138 22.3452 16.5723L23.7094 10.793ZM37.1161 9.91211C37.1161 10.1126 37.0874 10.3346 37.0302 10.5781C36.9729 10.8145 36.8905 11.0114 36.7831 11.1689C36.6542 11.3623 36.511 11.5127 36.3534 11.6201C36.203 11.7204 35.9846 11.7705 35.6981 11.7705C35.3114 11.7705 35.0214 11.6738 34.828 11.4805C34.6346 11.2871 34.538 11.0723 34.538 10.8359C34.538 10.6139 34.5917 10.3669 34.6991 10.0947C34.8065 9.81543 34.9175 9.53971 35.0321 9.26758C34.9462 9.26758 34.8029 9.29264 34.6024 9.34277C34.4091 9.38574 34.1727 9.47526 33.8934 9.61133C33.6141 9.7474 33.2955 9.9515 32.9374 10.2236C32.5865 10.4958 32.2105 10.8574 31.8095 11.3086L30.08 19H28.0819L29.6503 12.0391C29.6861 11.8672 29.7362 11.6094 29.8007 11.2656C29.8723 10.9219 29.9081 10.6676 29.9081 10.5029C29.9081 10.1019 29.8401 9.83333 29.704 9.69727C29.5679 9.5612 29.2958 9.49316 28.8876 9.49316C28.73 9.49316 28.5295 9.52181 28.286 9.5791C28.0425 9.62923 27.8527 9.6722 27.7167 9.70801L27.8778 9.02051C28.4364 8.76986 28.9305 8.58366 29.3602 8.46191C29.7899 8.34017 30.1587 8.2793 30.4667 8.2793C31.0396 8.2793 31.4478 8.43685 31.6913 8.75195C31.9348 9.0599 32.0565 9.52539 32.0565 10.1484H32.121C32.9732 9.41081 33.6177 8.89518 34.0546 8.60156C34.4986 8.30794 34.9605 8.16113 35.4403 8.16113C35.6695 8.16113 35.8915 8.18978 36.1063 8.24707C36.3212 8.30436 36.5038 8.40104 36.6542 8.53711C36.8117 8.6875 36.9263 8.86296 36.9979 9.06348C37.0767 9.25684 37.1161 9.53971 37.1161 9.91211ZM47.6868 12.3828C47.6868 13.2279 47.5436 14.0729 47.2571 14.918C46.9707 15.763 46.5553 16.5042 46.0111 17.1416C45.4596 17.8005 44.7936 18.3304 44.013 18.7314C43.2396 19.1253 42.3408 19.3223 41.3167 19.3223C40.1279 19.3223 39.1611 18.9391 38.4163 18.1729C37.6787 17.4066 37.3099 16.3753 37.3099 15.0791C37.3099 14.1266 37.4674 13.2386 37.7825 12.415C38.0976 11.5915 38.5202 10.8682 39.0501 10.2451C39.5872 9.62207 40.2497 9.12077 41.0374 8.74121C41.8323 8.35449 42.6917 8.16113 43.6155 8.16113C44.8903 8.16113 45.8857 8.55143 46.6019 9.33203C47.3252 10.1055 47.6868 11.1224 47.6868 12.3828ZM45.4954 11.9746C45.4954 10.9577 45.3128 10.195 44.9476 9.68652C44.5895 9.17806 44.0703 8.92383 43.39 8.92383C42.7956 8.92383 42.2334 9.10645 41.7034 9.47168C41.1807 9.83691 40.7295 10.4313 40.3499 11.2549C40.0563 11.8779 39.8415 12.5726 39.7054 13.3389C39.5693 14.098 39.5013 14.7998 39.5013 15.4443C39.5013 16.4684 39.6767 17.2454 40.0277 17.7754C40.3857 18.2982 40.9228 18.5596 41.639 18.5596C42.2764 18.5596 42.8421 18.359 43.3363 17.958C43.8304 17.557 44.2314 17.0485 44.5394 16.4326C44.8473 15.8311 45.0836 15.1436 45.2484 14.3701C45.4131 13.5895 45.4954 12.791 45.4954 11.9746ZM54.4119 2.53223L51.4148 15.4658C51.3504 15.738 51.2895 16.0101 51.2322 16.2822C51.1749 16.5544 51.1463 16.7764 51.1463 16.9482C51.1463 17.3564 51.2358 17.6357 51.4148 17.7861C51.601 17.9365 51.8982 18.0117 52.3064 18.0117C52.4496 18.0117 52.6609 17.9938 52.9402 17.958C53.2267 17.9222 53.4415 17.8792 53.5847 17.8291L53.4236 18.5166C52.7791 18.7744 52.2813 18.957 51.9304 19.0645C51.5867 19.1719 51.1964 19.2256 50.7595 19.2256C50.1866 19.2256 49.7498 19.0788 49.449 18.7852C49.1554 18.4844 49.0086 18.1156 49.0086 17.6787C49.0086 17.514 49.0229 17.3421 49.0515 17.1631C49.0873 16.984 49.1339 16.7585 49.1912 16.4863L51.8015 5.1748C51.8517 4.9528 51.8839 4.79883 51.8982 4.71289C51.9197 4.62695 51.9304 4.51953 51.9304 4.39062C51.9304 4.13281 51.8875 3.93587 51.8015 3.7998C51.7156 3.65658 51.5938 3.54915 51.4363 3.47754C51.2859 3.41309 51.0961 3.37012 50.867 3.34863C50.6378 3.32715 50.405 3.30208 50.1687 3.27344L50.3191 2.61816L54.3045 2.37109L54.4119 2.53223ZM59.7189 17.8291L59.5578 18.5166C58.899 18.7816 58.3726 18.9642 57.9787 19.0645C57.5848 19.1719 57.2482 19.2256 56.9689 19.2256C56.396 19.2256 55.9663 19.0788 55.6799 18.7852C55.3934 18.4844 55.2502 18.1156 55.2502 17.6787C55.2502 17.514 55.2645 17.3421 55.2932 17.1631C55.3218 16.984 55.3684 16.7585 55.4328 16.4863L56.5715 11.9209C56.6288 11.6702 56.6825 11.4017 56.7326 11.1152C56.7899 10.8288 56.8186 10.5853 56.8186 10.3848C56.8186 9.98372 56.7505 9.71875 56.6145 9.58984C56.4855 9.45378 56.217 9.38574 55.8088 9.38574C55.6512 9.38574 55.44 9.41081 55.175 9.46094C54.9172 9.51107 54.7202 9.55404 54.5842 9.58984L54.7453 8.90234C55.3039 8.65169 55.8052 8.46549 56.2492 8.34375C56.6932 8.22201 57.0441 8.16113 57.302 8.16113C57.8892 8.16113 58.3153 8.30078 58.5803 8.58008C58.8452 8.85938 58.9777 9.23535 58.9777 9.70801C58.9777 9.83691 58.9634 10.0124 58.9348 10.2344C58.9061 10.4564 58.8632 10.6784 58.8059 10.9004L57.6564 15.4658C57.5848 15.7451 57.5204 16.0208 57.4631 16.293C57.413 16.5579 57.3879 16.7764 57.3879 16.9482C57.3879 17.3564 57.4774 17.6357 57.6564 17.7861C57.8426 17.9365 58.1398 18.0117 58.548 18.0117C58.6841 18.0117 58.8775 17.9938 59.1281 17.958C59.3859 17.9222 59.5829 17.8792 59.7189 17.8291ZM60.4816 4.10059C60.4816 4.50879 60.3492 4.86686 60.0842 5.1748C59.8192 5.47559 59.4898 5.62598 59.0959 5.62598C58.7307 5.62598 58.4156 5.48275 58.1506 5.19629C57.8856 4.90267 57.7531 4.56966 57.7531 4.19727C57.7531 3.80339 57.8856 3.45964 58.1506 3.16602C58.4156 2.8724 58.7307 2.72559 59.0959 2.72559C59.5041 2.72559 59.8371 2.86523 60.0949 3.14453C60.3527 3.41667 60.4816 3.73535 60.4816 4.10059ZM72.2555 17.7539L72.0944 18.4414C71.4498 18.6992 70.9485 18.8854 70.5905 19C70.2324 19.1217 69.8707 19.1826 69.5055 19.1826C68.9326 19.1826 68.5029 19.0358 68.2164 18.7422C67.93 18.4414 67.7868 18.0726 67.7868 17.6357C67.7868 17.4782 67.8011 17.3063 67.8297 17.1201C67.8584 16.9268 67.9049 16.7012 67.9694 16.4434L69.0221 12.4365C69.1009 12.1286 69.1618 11.8493 69.2047 11.5986C69.2549 11.348 69.2799 11.1475 69.2799 10.9971C69.2799 10.5173 69.1653 10.1377 68.9362 9.8584C68.707 9.5791 68.3668 9.43945 67.9157 9.43945C67.4788 9.43945 66.9883 9.58268 66.444 9.86914C65.8997 10.1556 65.3877 10.571 64.9079 11.1152L63.0924 19H61.0944L62.695 12.0391C62.7308 11.8672 62.7809 11.6201 62.8454 11.2979C62.917 10.9684 62.9528 10.7035 62.9528 10.5029C62.9528 10.1019 62.8847 9.83333 62.7487 9.69727C62.6126 9.5612 62.3405 9.49316 61.9323 9.49316C61.7747 9.49316 61.5742 9.52181 61.3307 9.5791C61.0872 9.62923 60.8974 9.6722 60.7614 9.70801L60.9225 9.02051C61.4811 8.76986 61.9752 8.58366 62.4049 8.46191C62.8346 8.34017 63.2034 8.2793 63.5114 8.2793C64.0771 8.2793 64.4817 8.43327 64.7252 8.74121C64.9687 9.04915 65.0976 9.47526 65.112 10.0195H65.1764C65.9642 9.38932 66.6445 8.92383 67.2174 8.62305C67.7903 8.3151 68.442 8.16113 69.1725 8.16113C69.86 8.16113 70.3971 8.36165 70.7838 8.7627C71.1705 9.15658 71.3639 9.67578 71.3639 10.3203C71.3639 10.4492 71.3424 10.6784 71.2995 11.0078C71.2636 11.3372 71.2028 11.6631 71.1168 11.9854L70.2145 15.4336C70.15 15.6628 70.0856 15.9277 70.0211 16.2285C69.9638 16.5221 69.9352 16.7513 69.9352 16.916C69.9352 17.3242 70.0247 17.6035 70.2038 17.7539C70.3828 17.8971 70.6764 17.9688 71.0846 17.9688C71.2207 17.9688 71.414 17.9473 71.6647 17.9043C71.9225 17.8542 72.1194 17.804 72.2555 17.7539ZM79.9259 17.582H79.8507C79.6931 17.7109 79.5033 17.8757 79.2813 18.0762C79.0665 18.2695 78.8123 18.4557 78.5186 18.6348C78.2393 18.8138 77.935 18.9678 77.6055 19.0967C77.2761 19.2327 76.918 19.3008 76.5313 19.3008C75.4929 19.3008 74.6765 18.9284 74.0821 18.1836C73.4949 17.4388 73.2012 16.4219 73.2012 15.1328C73.2012 14.2448 73.366 13.3818 73.6954 12.5439C74.0248 11.7061 74.4796 10.9541 75.0596 10.2881C75.6111 9.65072 76.2664 9.13867 77.0255 8.75195C77.7846 8.35807 78.5652 8.16113 79.3673 8.16113C79.8757 8.16113 80.3591 8.22917 80.8175 8.36523C81.283 8.5013 81.6482 8.65527 81.9132 8.82715L83.879 8.32227L84.0079 8.4834L82.3751 15.4121C82.3178 15.6341 82.2569 15.9062 82.1925 16.2285C82.1352 16.5436 82.1065 16.7764 82.1065 16.9268C82.1065 17.335 82.1925 17.6107 82.3643 17.7539C82.5362 17.8971 82.8262 17.9688 83.2345 17.9688C83.3705 17.9688 83.5639 17.9473 83.8145 17.9043C84.0652 17.8613 84.2585 17.8148 84.3946 17.7646L84.2335 18.4521C83.5889 18.71 83.1091 18.8962 82.794 19.0107C82.4789 19.1253 82.0958 19.1826 81.6446 19.1826C81.129 19.1826 80.7208 19.0322 80.42 18.7314C80.1192 18.4307 79.9545 18.0475 79.9259 17.582ZM81.462 10.793C81.462 10.5566 81.4369 10.3311 81.3868 10.1162C81.3367 9.90137 81.2328 9.70085 81.0753 9.51465C80.932 9.33561 80.7351 9.19238 80.4845 9.08496C80.2338 8.97754 79.9187 8.92383 79.5391 8.92383C79.0164 8.92383 78.5079 9.0957 78.0137 9.43945C77.5196 9.7832 77.0756 10.2451 76.6817 10.8252C76.3093 11.3695 76.005 12.0283 75.7686 12.8018C75.5323 13.5752 75.4141 14.3594 75.4141 15.1543C75.4141 15.5911 75.4392 15.9779 75.4893 16.3145C75.5395 16.651 75.6361 16.959 75.7794 17.2383C75.9154 17.5104 76.1124 17.7217 76.3702 17.8721C76.628 18.0225 76.9539 18.0977 77.3477 18.0977C77.7488 18.0977 78.1677 17.9867 78.6046 17.7646C79.0486 17.5355 79.5463 17.138 80.0977 16.5723L81.462 10.793ZM108.383 3.75684L108.211 4.46582C108.018 4.47298 107.699 4.53027 107.255 4.6377C106.811 4.74512 106.489 4.85612 106.288 4.9707C105.98 5.14974 105.726 5.49349 105.525 6.00195C105.332 6.50326 105.142 7.14779 104.956 7.93555L102.367 19.1504H101.4L95.1484 6.28125L93.2363 14.5957C93.1504 14.9681 93.0787 15.3441 93.0214 15.7236C92.9642 16.1032 92.9355 16.4111 92.9355 16.6475C92.9355 16.8981 92.9606 17.1022 93.0107 17.2598C93.0608 17.4102 93.1289 17.5355 93.2148 17.6357C93.3366 17.7861 93.6409 17.9294 94.1279 18.0654C94.6149 18.2015 94.9371 18.2767 95.0947 18.291L94.9336 19H88.6816L88.8427 18.291C89.0791 18.2695 89.4264 18.2015 89.8847 18.0869C90.3431 17.9652 90.6474 17.8506 90.7978 17.7432C91.0843 17.5498 91.3278 17.2383 91.5283 16.8086C91.7288 16.3717 91.9365 15.6735 92.1513 14.7139L93.8593 7.32324C93.9095 7.08691 93.9453 6.88639 93.9668 6.72168C93.9882 6.5498 93.999 6.39225 93.999 6.24902C93.999 6.07715 93.9775 5.91602 93.9345 5.76562C93.8987 5.60807 93.8092 5.44336 93.666 5.27148C93.4153 4.98503 93.1074 4.78809 92.7421 4.68066C92.3841 4.56608 92.0618 4.49447 91.7754 4.46582L91.9472 3.75684H96.3193L102.12 15.6699L103.871 8.0752C103.957 7.69564 104.029 7.32682 104.086 6.96875C104.143 6.60352 104.172 6.29199 104.172 6.03418C104.172 5.79785 104.147 5.60091 104.097 5.44336C104.054 5.27865 103.986 5.1569 103.893 5.07812C103.721 4.92773 103.431 4.79883 103.022 4.69141C102.614 4.57682 102.278 4.50163 102.013 4.46582L102.185 3.75684H108.383ZM111.853 17.8291L111.692 18.5166C111.033 18.7816 110.507 18.9642 110.113 19.0645C109.719 19.1719 109.382 19.2256 109.103 19.2256C108.53 19.2256 108.1 19.0788 107.814 18.7852C107.527 18.4844 107.384 18.1156 107.384 17.6787C107.384 17.514 107.399 17.3421 107.427 17.1631C107.456 16.984 107.502 16.7585 107.567 16.4863L108.705 11.9209C108.763 11.6702 108.816 11.4017 108.867 11.1152C108.924 10.8288 108.953 10.5853 108.953 10.3848C108.953 9.98372 108.885 9.71875 108.748 9.58984C108.62 9.45378 108.351 9.38574 107.943 9.38574C107.785 9.38574 107.574 9.41081 107.309 9.46094C107.051 9.51107 106.854 9.55404 106.718 9.58984L106.879 8.90234C107.438 8.65169 107.939 8.46549 108.383 8.34375C108.827 8.22201 109.178 8.16113 109.436 8.16113C110.023 8.16113 110.449 8.30078 110.714 8.58008C110.979 8.85938 111.112 9.23535 111.112 9.70801C111.112 9.83691 111.097 10.0124 111.069 10.2344C111.04 10.4564 110.997 10.6784 110.94 10.9004L109.79 15.4658C109.719 15.7451 109.654 16.0208 109.597 16.293C109.547 16.5579 109.522 16.7764 109.522 16.9482C109.522 17.3564 109.611 17.6357 109.79 17.7861C109.977 17.9365 110.274 18.0117 110.682 18.0117C110.818 18.0117 111.011 17.9938 111.262 17.958C111.52 17.9222 111.717 17.8792 111.853 17.8291ZM112.616 4.10059C112.616 4.50879 112.483 4.86686 112.218 5.1748C111.953 5.47559 111.624 5.62598 111.23 5.62598C110.865 5.62598 110.55 5.48275 110.285 5.19629C110.02 4.90267 109.887 4.56966 109.887 4.19727C109.887 3.80339 110.02 3.45964 110.285 3.16602C110.55 2.8724 110.865 2.72559 111.23 2.72559C111.638 2.72559 111.971 2.86523 112.229 3.14453C112.487 3.41667 112.616 3.73535 112.616 4.10059ZM119.663 17.5498L119.588 17.5283C119.445 17.6429 119.24 17.804 118.975 18.0117C118.718 18.2194 118.445 18.402 118.159 18.5596C117.83 18.7529 117.497 18.9105 117.16 19.0322C116.823 19.154 116.451 19.2148 116.043 19.2148C115.004 19.2148 114.202 18.8496 113.637 18.1191C113.078 17.3815 112.799 16.3682 112.799 15.0791C112.799 14.1911 112.96 13.3281 113.282 12.4902C113.612 11.6523 114.059 10.9076 114.625 10.2559C115.169 9.62565 115.821 9.12077 116.58 8.74121C117.339 8.35449 118.134 8.16113 118.965 8.16113C119.48 8.16113 119.967 8.22917 120.426 8.36523C120.884 8.49414 121.253 8.64811 121.532 8.82715L123.498 8.32227L123.627 8.4834L121.822 16.9482C121.55 18.2301 121.199 19.3115 120.769 20.1924C120.347 21.0804 119.856 21.7822 119.298 22.2979C118.725 22.8278 118.091 23.2038 117.396 23.4258C116.709 23.6549 115.928 23.7695 115.055 23.7695C114.46 23.7695 113.973 23.723 113.594 23.6299C113.221 23.5368 112.928 23.415 112.713 23.2646C112.498 23.1143 112.351 22.9424 112.272 22.749C112.201 22.5628 112.165 22.3838 112.165 22.2119C112.165 21.8896 112.262 21.6175 112.455 21.3955C112.648 21.1807 112.913 21.0732 113.25 21.0732C113.515 21.0732 113.74 21.1484 113.927 21.2988C114.113 21.4564 114.263 21.6247 114.378 21.8037C114.5 21.9899 114.618 22.2119 114.732 22.4697C114.847 22.7275 114.933 22.9209 114.99 23.0498H115.312C115.706 23.0498 116.129 22.9603 116.58 22.7812C117.031 22.6022 117.443 22.3122 117.815 21.9111C118.195 21.4958 118.549 20.9372 118.879 20.2354C119.208 19.5407 119.47 18.6455 119.663 17.5498ZM121.102 10.6855C121.102 10.485 121.07 10.2809 121.006 10.0732C120.948 9.8584 120.837 9.66146 120.673 9.48242C120.515 9.31055 120.315 9.17448 120.071 9.07422C119.828 8.97396 119.516 8.92383 119.137 8.92383C118.585 8.92383 118.062 9.09212 117.568 9.42871C117.081 9.75814 116.641 10.2129 116.247 10.793C115.882 11.3372 115.584 11.9961 115.355 12.7695C115.126 13.543 115.012 14.32 115.012 15.1006C115.012 15.5231 115.04 15.9134 115.098 16.2715C115.162 16.6224 115.269 16.9303 115.42 17.1953C115.57 17.4603 115.767 17.668 116.011 17.8184C116.261 17.9616 116.584 18.0332 116.977 18.0332C117.479 18.0332 117.976 17.89 118.471 17.6035C118.965 17.3099 119.434 16.9375 119.878 16.4863L121.102 10.6855ZM130.663 2.53223L127.666 15.4658C127.602 15.738 127.541 16.0101 127.484 16.2822C127.426 16.5544 127.398 16.7764 127.398 16.9482C127.398 17.3564 127.487 17.6357 127.666 17.7861C127.852 17.9365 128.15 18.0117 128.558 18.0117C128.701 18.0117 128.912 17.9938 129.192 17.958C129.478 17.9222 129.693 17.8792 129.836 17.8291L129.675 18.5166C129.031 18.7744 128.533 18.957 128.182 19.0645C127.838 19.1719 127.448 19.2256 127.011 19.2256C126.438 19.2256 126.001 19.0788 125.7 18.7852C125.407 18.4844 125.26 18.1156 125.26 17.6787C125.26 17.514 125.274 17.3421 125.303 17.1631C125.339 16.984 125.385 16.7585 125.443 16.4863L128.053 5.1748C128.103 4.9528 128.135 4.79883 128.15 4.71289C128.171 4.62695 128.182 4.51953 128.182 4.39062C128.182 4.13281 128.139 3.93587 128.053 3.7998C127.967 3.65658 127.845 3.54915 127.688 3.47754C127.537 3.41309 127.348 3.37012 127.118 3.34863C126.889 3.32715 126.657 3.30208 126.42 3.27344L126.571 2.61816L130.556 2.37109L130.663 2.53223ZM135.97 17.8291L135.809 18.5166C135.15 18.7816 134.624 18.9642 134.23 19.0645C133.836 19.1719 133.5 19.2256 133.22 19.2256C132.648 19.2256 132.218 19.0788 131.931 18.7852C131.645 18.4844 131.502 18.1156 131.502 17.6787C131.502 17.514 131.516 17.3421 131.545 17.1631C131.573 16.984 131.62 16.7585 131.684 16.4863L132.823 11.9209C132.88 11.6702 132.934 11.4017 132.984 11.1152C133.041 10.8288 133.07 10.5853 133.07 10.3848C133.07 9.98372 133.002 9.71875 132.866 9.58984C132.737 9.45378 132.468 9.38574 132.06 9.38574C131.903 9.38574 131.691 9.41081 131.426 9.46094C131.169 9.51107 130.972 9.55404 130.836 9.58984L130.997 8.90234C131.555 8.65169 132.057 8.46549 132.501 8.34375C132.945 8.22201 133.296 8.16113 133.553 8.16113C134.141 8.16113 134.567 8.30078 134.832 8.58008C135.097 8.85938 135.229 9.23535 135.229 9.70801C135.229 9.83691 135.215 10.0124 135.186 10.2344C135.158 10.4564 135.115 10.6784 135.057 10.9004L133.908 15.4658C133.836 15.7451 133.772 16.0208 133.715 16.293C133.664 16.5579 133.639 16.7764 133.639 16.9482C133.639 17.3564 133.729 17.6357 133.908 17.7861C134.094 17.9365 134.391 18.0117 134.8 18.0117C134.936 18.0117 135.129 17.9938 135.38 17.958C135.637 17.9222 135.834 17.8792 135.97 17.8291ZM136.733 4.10059C136.733 4.50879 136.601 4.86686 136.336 5.1748C136.071 5.47559 135.741 5.62598 135.347 5.62598C134.982 5.62598 134.667 5.48275 134.402 5.19629C134.137 4.90267 134.005 4.56966 134.005 4.19727C134.005 3.80339 134.137 3.45964 134.402 3.16602C134.667 2.8724 134.982 2.72559 135.347 2.72559C135.756 2.72559 136.089 2.86523 136.346 3.14453C136.604 3.41667 136.733 3.73535 136.733 4.10059ZM147.261 12.3828C147.261 13.2279 147.118 14.0729 146.831 14.918C146.545 15.763 146.129 16.5042 145.585 17.1416C145.034 17.8005 144.368 18.3304 143.587 18.7314C142.814 19.1253 141.915 19.3223 140.891 19.3223C139.702 19.3223 138.735 18.9391 137.99 18.1729C137.253 17.4066 136.884 16.3753 136.884 15.0791C136.884 14.1266 137.041 13.2386 137.357 12.415C137.672 11.5915 138.094 10.8682 138.624 10.2451C139.161 9.62207 139.824 9.12077 140.611 8.74121C141.406 8.35449 142.266 8.16113 143.19 8.16113C144.464 8.16113 145.46 8.55143 146.176 9.33203C146.899 10.1055 147.261 11.1224 147.261 12.3828ZM145.069 11.9746C145.069 10.9577 144.887 10.195 144.522 9.68652C144.164 9.17806 143.644 8.92383 142.964 8.92383C142.37 8.92383 141.807 9.10645 141.277 9.47168C140.755 9.83691 140.304 10.4313 139.924 11.2549C139.63 11.8779 139.416 12.5726 139.279 13.3389C139.143 14.098 139.075 14.7998 139.075 15.4443C139.075 16.4684 139.251 17.2454 139.602 17.7754C139.96 18.2982 140.497 18.5596 141.213 18.5596C141.85 18.5596 142.416 18.359 142.91 17.958C143.404 17.557 143.805 17.0485 144.113 16.4326C144.421 15.8311 144.658 15.1436 144.822 14.3701C144.987 13.5895 145.069 12.791 145.069 11.9746Z" fill="#222222"/>
<path d="M1 26C24.2025 22.4029 90.5632 19.9088 155 24.4728" stroke="#222222" stroke-linecap="round"/>
</svg>
