<svg width="26" height="26" viewBox="0 0 26 26" fill="none" xmlns="http://www.w3.org/2000/svg">
<path fill-rule="evenodd" clip-rule="evenodd" d="M16.5243 0.0598177L2.07161 1.12242C0.905636 1.22278 0.5 1.98119 0.5 2.89014V18.6616C0.5 19.3695 0.752575 19.9753 1.36194 20.785L4.7593 25.1823C5.31748 25.8902 5.82498 26.0421 6.89065 25.9916L23.6742 24.9803C25.0933 24.8796 25.5 24.2218 25.5 23.1101V5.36713C25.5 4.79254 25.272 4.62692 24.6007 4.13657L19.872 0.817969C18.756 0.0101582 18.2996 -0.0920205 16.5243 0.0595577V0.0598177ZM7.27017 5.07672C5.89968 5.1685 5.58886 5.1893 4.8105 4.55932L2.83169 2.99258C2.63057 2.78979 2.73165 2.53681 3.23837 2.48637L17.1321 1.47576C18.2989 1.37436 18.9064 1.77918 19.3627 2.13277L21.7456 3.85135C21.8475 3.90257 22.1008 4.20495 21.796 4.20495L7.44778 5.06476L7.27017 5.07672ZM5.67244 22.9585V7.89612C5.67244 7.23833 5.87539 6.93492 6.48293 6.88396L22.9628 5.92353C23.5217 5.87335 23.7743 6.22694 23.7743 6.8837V21.8457C23.7743 22.5035 23.6724 23.0599 22.7601 23.1101L6.98991 24.0201C6.07755 24.0703 5.6727 23.7679 5.6727 22.9585H5.67244ZM21.2397 8.70367C21.3407 9.15867 21.2397 9.61366 20.7826 9.66566L20.0225 9.81568V20.9365C19.3624 21.2901 18.7549 21.4921 18.2471 21.4921C17.4356 21.4921 17.2329 21.2392 16.6251 20.4815L11.6546 12.6972V20.2286L13.227 20.5829C13.227 20.5829 13.227 21.4929 11.9584 21.4929L8.46096 21.6949C8.35909 21.4921 8.46096 20.987 8.8154 20.8863L9.7288 20.6342V10.6763L8.46122 10.5741C8.35935 10.1191 8.61271 9.46209 9.32316 9.41113L13.0757 9.15971L18.2474 17.0446V10.0689L16.9292 9.91812C16.8273 9.36095 17.2329 8.95613 17.7396 8.90673L21.2397 8.70367Z" fill="#222222"/>
</svg>
