<svg width="16" height="20" viewBox="0 0 16 20" fill="none" xmlns="http://www.w3.org/2000/svg">
<path d="M0.77 8.06178C0.77 3.79874 4.05314 0.77 8 0.77C11.9469 0.77 15.23 3.79874 15.23 8.06178C15.23 8.92114 14.9396 9.90986 14.4243 10.972C13.9124 12.0271 13.2023 13.1067 12.4198 14.1344C10.8544 16.1902 9.04941 17.9736 8.11388 18.8524C8.07569 18.8882 8.03548 18.9007 8 18.9007C7.96452 18.9007 7.92431 18.8882 7.88612 18.8524C6.95059 17.9736 5.14559 16.1902 3.58025 14.1344C2.79771 13.1067 2.08756 12.0271 1.57568 10.972C1.06042 9.90987 0.77 8.92114 0.77 8.06178Z" stroke="#414141" stroke-width="1.54"/>
<circle cx="8" cy="8" r="3" stroke="#414141" stroke-width="1.54"/>
</svg>
