<svg width="314" height="212" viewBox="0 0 314 212" fill="none" xmlns="http://www.w3.org/2000/svg">
<rect x="18.25" y="20.5" width="76" height="30" rx="5.5" fill="#A5CBF1"/>
<rect x="18.25" y="20.5" width="76" height="30" rx="5.5" stroke="#98BBDD"/>
<path d="M28.49 40.12C27.338 40.12 26.434 39.796 25.778 39.148C25.13 38.5 24.806 37.564 24.806 36.34V31.6H26.366V36.28C26.366 37.144 26.55 37.772 26.918 38.164C27.294 38.556 27.822 38.752 28.502 38.752C29.182 38.752 29.706 38.556 30.074 38.164C30.442 37.772 30.626 37.144 30.626 36.28V31.6H32.162V36.34C32.162 37.564 31.834 38.5 31.178 39.148C30.53 39.796 29.634 40.12 28.49 40.12ZM34.3468 40V31.6H35.9068V40H34.3468ZM41.4952 40V31.6H45.1672C46.0792 31.6 46.8792 31.776 47.5672 32.128C48.2552 32.48 48.7912 32.968 49.1752 33.592C49.5592 34.216 49.7512 34.952 49.7512 35.8C49.7512 36.64 49.5592 37.376 49.1752 38.008C48.7912 38.632 48.2552 39.12 47.5672 39.472C46.8792 39.824 46.0792 40 45.1672 40H41.4952ZM43.0552 38.68H45.0952C45.7272 38.68 46.2712 38.56 46.7272 38.32C47.1912 38.08 47.5472 37.744 47.7952 37.312C48.0512 36.88 48.1792 36.376 48.1792 35.8C48.1792 35.216 48.0512 34.712 47.7952 34.288C47.5472 33.856 47.1912 33.52 46.7272 33.28C46.2712 33.04 45.7272 32.92 45.0952 32.92H43.0552V38.68ZM52.8493 35.092H57.0253V36.376H52.8493V35.092ZM52.9693 38.692H57.7093V40H51.4093V31.6H57.5413V32.908H52.9693V38.692ZM62.0523 40.12C61.3963 40.12 60.7683 40.028 60.1683 39.844C59.5683 39.652 59.0923 39.408 58.7403 39.112L59.2803 37.9C59.6163 38.164 60.0323 38.384 60.5283 38.56C61.0243 38.736 61.5323 38.824 62.0523 38.824C62.4923 38.824 62.8483 38.776 63.1203 38.68C63.3923 38.584 63.5923 38.456 63.7203 38.296C63.8483 38.128 63.9123 37.94 63.9123 37.732C63.9123 37.476 63.8203 37.272 63.6363 37.12C63.4523 36.96 63.2123 36.836 62.9163 36.748C62.6283 36.652 62.3043 36.564 61.9443 36.484C61.5923 36.404 61.2363 36.312 60.8763 36.208C60.5243 36.096 60.2003 35.956 59.9043 35.788C59.6163 35.612 59.3803 35.38 59.1963 35.092C59.0123 34.804 58.9203 34.436 58.9203 33.988C58.9203 33.532 59.0403 33.116 59.2803 32.74C59.5283 32.356 59.9003 32.052 60.3963 31.828C60.9003 31.596 61.5363 31.48 62.3043 31.48C62.8083 31.48 63.3083 31.544 63.8043 31.672C64.3003 31.8 64.7323 31.984 65.1003 32.224L64.6083 33.436C64.2323 33.212 63.8443 33.048 63.4443 32.944C63.0443 32.832 62.6603 32.776 62.2923 32.776C61.8603 32.776 61.5083 32.828 61.2363 32.932C60.9723 33.036 60.7763 33.172 60.6483 33.34C60.5283 33.508 60.4683 33.7 60.4683 33.916C60.4683 34.172 60.5563 34.38 60.7323 34.54C60.9163 34.692 61.1523 34.812 61.4403 34.9C61.7363 34.988 62.0643 35.076 62.4243 35.164C62.7843 35.244 63.1403 35.336 63.4923 35.44C63.8523 35.544 64.1763 35.68 64.4643 35.848C64.7603 36.016 64.9963 36.244 65.1723 36.532C65.3563 36.82 65.4483 37.184 65.4483 37.624C65.4483 38.072 65.3243 38.488 65.0763 38.872C64.8363 39.248 64.4643 39.552 63.9603 39.784C63.4563 40.008 62.8203 40.12 62.0523 40.12ZM66.9952 40V31.6H68.5552V40H66.9952ZM74.7512 40.12C74.0952 40.12 73.4912 40.016 72.9392 39.808C72.3952 39.592 71.9192 39.292 71.5112 38.908C71.1032 38.516 70.7872 38.056 70.5632 37.528C70.3392 37 70.2272 36.424 70.2272 35.8C70.2272 35.176 70.3392 34.6 70.5632 34.072C70.7872 33.544 71.1032 33.088 71.5112 32.704C71.9272 32.312 72.4112 32.012 72.9632 31.804C73.5152 31.588 74.1192 31.48 74.7752 31.48C75.4872 31.48 76.1272 31.596 76.6952 31.828C77.2712 32.06 77.7552 32.4 78.1472 32.848L77.1632 33.808C76.8352 33.48 76.4792 33.24 76.0952 33.088C75.7192 32.928 75.3032 32.848 74.8472 32.848C74.4072 32.848 73.9992 32.92 73.6232 33.064C73.2472 33.208 72.9232 33.412 72.6512 33.676C72.3792 33.94 72.1672 34.252 72.0152 34.612C71.8712 34.972 71.7992 35.368 71.7992 35.8C71.7992 36.224 71.8712 36.616 72.0152 36.976C72.1672 37.336 72.3792 37.652 72.6512 37.924C72.9232 38.188 73.2432 38.392 73.6112 38.536C73.9792 38.68 74.3872 38.752 74.8352 38.752C75.2512 38.752 75.6512 38.688 76.0352 38.56C76.4272 38.424 76.7992 38.2 77.1512 37.888L78.0392 39.052C77.5992 39.404 77.0872 39.672 76.5032 39.856C75.9272 40.032 75.3432 40.12 74.7512 40.12ZM76.5632 38.848V35.704H78.0392V39.052L76.5632 38.848ZM80.0968 40V31.6H81.3808L86.6488 38.068H86.0128V31.6H87.5608V40H86.2768L81.0088 33.532H81.6448V40H80.0968Z" fill="#222222"/>
<g filter="url(#filter0_d_1_1139)">
<path d="M9.50418 20.0002L6.37291 4.04113L20.75 11.9184L13.6681 13.973L9.50418 20.0002Z" fill="#A5CBF1"/>
<path d="M9.50418 20.0002L6.37291 4.04113L20.75 11.9184L13.6681 13.973L9.50418 20.0002Z" stroke="#98BBDD"/>
</g>
<rect x="197.25" y="40.5" width="112" height="30" rx="5.5" fill="#CBBCF3"/>
<rect x="197.25" y="40.5" width="112" height="30" rx="5.5" stroke="#B9A7E8"/>
<path d="M203.878 60V51.6H207.55C208.462 51.6 209.262 51.776 209.95 52.128C210.638 52.48 211.174 52.968 211.558 53.592C211.942 54.216 212.134 54.952 212.134 55.8C212.134 56.64 211.942 57.376 211.558 58.008C211.174 58.632 210.638 59.12 209.95 59.472C209.262 59.824 208.462 60 207.55 60H203.878ZM205.438 58.68H207.478C208.11 58.68 208.654 58.56 209.11 58.32C209.574 58.08 209.93 57.744 210.178 57.312C210.434 56.88 210.562 56.376 210.562 55.8C210.562 55.216 210.434 54.712 210.178 54.288C209.93 53.856 209.574 53.52 209.11 53.28C208.654 53.04 208.11 52.92 207.478 52.92H205.438V58.68ZM215.232 55.092H219.408V56.376H215.232V55.092ZM215.352 58.692H220.092V60H213.792V51.6H219.924V52.908H215.352V58.692ZM224.435 60.12C223.779 60.12 223.151 60.028 222.551 59.844C221.951 59.652 221.475 59.408 221.123 59.112L221.663 57.9C221.999 58.164 222.415 58.384 222.911 58.56C223.407 58.736 223.915 58.824 224.435 58.824C224.875 58.824 225.231 58.776 225.503 58.68C225.775 58.584 225.975 58.456 226.103 58.296C226.231 58.128 226.295 57.94 226.295 57.732C226.295 57.476 226.203 57.272 226.019 57.12C225.835 56.96 225.595 56.836 225.299 56.748C225.011 56.652 224.687 56.564 224.327 56.484C223.975 56.404 223.619 56.312 223.259 56.208C222.907 56.096 222.583 55.956 222.287 55.788C221.999 55.612 221.763 55.38 221.579 55.092C221.395 54.804 221.303 54.436 221.303 53.988C221.303 53.532 221.423 53.116 221.663 52.74C221.911 52.356 222.283 52.052 222.779 51.828C223.283 51.596 223.919 51.48 224.687 51.48C225.191 51.48 225.691 51.544 226.187 51.672C226.683 51.8 227.115 51.984 227.483 52.224L226.991 53.436C226.615 53.212 226.227 53.048 225.827 52.944C225.427 52.832 225.043 52.776 224.675 52.776C224.243 52.776 223.891 52.828 223.619 52.932C223.355 53.036 223.159 53.172 223.031 53.34C222.911 53.508 222.851 53.7 222.851 53.916C222.851 54.172 222.939 54.38 223.115 54.54C223.299 54.692 223.535 54.812 223.823 54.9C224.119 54.988 224.447 55.076 224.807 55.164C225.167 55.244 225.523 55.336 225.875 55.44C226.235 55.544 226.559 55.68 226.847 55.848C227.143 56.016 227.379 56.244 227.555 56.532C227.739 56.82 227.831 57.184 227.831 57.624C227.831 58.072 227.707 58.488 227.459 58.872C227.219 59.248 226.847 59.552 226.343 59.784C225.839 60.008 225.203 60.12 224.435 60.12ZM229.378 60V51.6H230.938V60H229.378ZM237.134 60.12C236.478 60.12 235.874 60.016 235.322 59.808C234.778 59.592 234.302 59.292 233.894 58.908C233.486 58.516 233.17 58.056 232.946 57.528C232.722 57 232.61 56.424 232.61 55.8C232.61 55.176 232.722 54.6 232.946 54.072C233.17 53.544 233.486 53.088 233.894 52.704C234.31 52.312 234.794 52.012 235.346 51.804C235.898 51.588 236.502 51.48 237.158 51.48C237.87 51.48 238.51 51.596 239.078 51.828C239.654 52.06 240.138 52.4 240.53 52.848L239.546 53.808C239.218 53.48 238.862 53.24 238.478 53.088C238.102 52.928 237.686 52.848 237.23 52.848C236.79 52.848 236.382 52.92 236.006 53.064C235.63 53.208 235.306 53.412 235.034 53.676C234.762 53.94 234.55 54.252 234.398 54.612C234.254 54.972 234.182 55.368 234.182 55.8C234.182 56.224 234.254 56.616 234.398 56.976C234.55 57.336 234.762 57.652 235.034 57.924C235.306 58.188 235.626 58.392 235.994 58.536C236.362 58.68 236.77 58.752 237.218 58.752C237.634 58.752 238.034 58.688 238.418 58.56C238.81 58.424 239.182 58.2 239.534 57.888L240.422 59.052C239.982 59.404 239.47 59.672 238.886 59.856C238.31 60.032 237.726 60.12 237.134 60.12ZM238.946 58.848V55.704H240.422V59.052L238.946 58.848ZM242.48 60V51.6H243.764L249.032 58.068H248.396V51.6H249.944V60H248.66L243.392 53.532H244.028V60H242.48ZM258.115 60.12C257.459 60.12 256.831 60.028 256.231 59.844C255.631 59.652 255.155 59.408 254.803 59.112L255.343 57.9C255.679 58.164 256.095 58.384 256.591 58.56C257.087 58.736 257.595 58.824 258.115 58.824C258.555 58.824 258.911 58.776 259.183 58.68C259.455 58.584 259.655 58.456 259.783 58.296C259.911 58.128 259.975 57.94 259.975 57.732C259.975 57.476 259.883 57.272 259.699 57.12C259.515 56.96 259.275 56.836 258.979 56.748C258.691 56.652 258.367 56.564 258.007 56.484C257.655 56.404 257.299 56.312 256.939 56.208C256.587 56.096 256.263 55.956 255.967 55.788C255.679 55.612 255.443 55.38 255.259 55.092C255.075 54.804 254.983 54.436 254.983 53.988C254.983 53.532 255.103 53.116 255.343 52.74C255.591 52.356 255.963 52.052 256.459 51.828C256.963 51.596 257.599 51.48 258.367 51.48C258.871 51.48 259.371 51.544 259.867 51.672C260.363 51.8 260.795 51.984 261.163 52.224L260.671 53.436C260.295 53.212 259.907 53.048 259.507 52.944C259.107 52.832 258.723 52.776 258.355 52.776C257.923 52.776 257.571 52.828 257.299 52.932C257.035 53.036 256.839 53.172 256.711 53.34C256.591 53.508 256.531 53.7 256.531 53.916C256.531 54.172 256.619 54.38 256.795 54.54C256.979 54.692 257.215 54.812 257.503 54.9C257.799 54.988 258.127 55.076 258.487 55.164C258.847 55.244 259.203 55.336 259.555 55.44C259.915 55.544 260.239 55.68 260.527 55.848C260.823 56.016 261.059 56.244 261.235 56.532C261.419 56.82 261.511 57.184 261.511 57.624C261.511 58.072 261.387 58.488 261.139 58.872C260.899 59.248 260.527 59.552 260.023 59.784C259.519 60.008 258.883 60.12 258.115 60.12ZM264.946 60V56.676L265.294 57.636L261.646 51.6H263.314L266.242 56.46H265.306L268.258 51.6H269.794L266.146 57.636L266.506 56.676V60H264.946ZM273.244 60.12C272.588 60.12 271.96 60.028 271.36 59.844C270.76 59.652 270.284 59.408 269.932 59.112L270.472 57.9C270.808 58.164 271.224 58.384 271.72 58.56C272.216 58.736 272.724 58.824 273.244 58.824C273.684 58.824 274.04 58.776 274.312 58.68C274.584 58.584 274.784 58.456 274.912 58.296C275.04 58.128 275.104 57.94 275.104 57.732C275.104 57.476 275.012 57.272 274.828 57.12C274.644 56.96 274.404 56.836 274.108 56.748C273.82 56.652 273.496 56.564 273.136 56.484C272.784 56.404 272.428 56.312 272.068 56.208C271.716 56.096 271.392 55.956 271.096 55.788C270.808 55.612 270.572 55.38 270.388 55.092C270.204 54.804 270.112 54.436 270.112 53.988C270.112 53.532 270.232 53.116 270.472 52.74C270.72 52.356 271.092 52.052 271.588 51.828C272.092 51.596 272.728 51.48 273.496 51.48C274 51.48 274.5 51.544 274.996 51.672C275.492 51.8 275.924 51.984 276.292 52.224L275.8 53.436C275.424 53.212 275.036 53.048 274.636 52.944C274.236 52.832 273.852 52.776 273.484 52.776C273.052 52.776 272.7 52.828 272.428 52.932C272.164 53.036 271.968 53.172 271.84 53.34C271.72 53.508 271.66 53.7 271.66 53.916C271.66 54.172 271.748 54.38 271.924 54.54C272.108 54.692 272.344 54.812 272.632 54.9C272.928 54.988 273.256 55.076 273.616 55.164C273.976 55.244 274.332 55.336 274.684 55.44C275.044 55.544 275.368 55.68 275.656 55.848C275.952 56.016 276.188 56.244 276.364 56.532C276.548 56.82 276.64 57.184 276.64 57.624C276.64 58.072 276.516 58.488 276.268 58.872C276.028 59.248 275.656 59.552 275.152 59.784C274.648 60.008 274.012 60.12 273.244 60.12ZM279.773 60V52.92H276.989V51.6H284.117V52.92H281.333V60H279.773ZM286.728 55.092H290.904V56.376H286.728V55.092ZM286.848 58.692H291.588V60H285.288V51.6H291.42V52.908H286.848V58.692ZM293.327 60V51.6H294.611L298.283 57.732H297.611L301.223 51.6H302.507L302.519 60H301.043L301.031 53.916H301.343L298.271 59.04H297.575L294.455 53.916H294.815V60H293.327Z" fill="#222222"/>
<g filter="url(#filter1_d_1_1139)">
<path d="M188.504 40.0002L185.373 24.0411L199.75 31.9184L192.668 33.973L188.504 40.0002Z" fill="#CBBCF3"/>
<path d="M188.504 40.0002L185.373 24.0411L199.75 31.9184L192.668 33.973L188.504 40.0002Z" stroke="#B9A7E8"/>
</g>
<rect x="93.75" y="96.5" width="80" height="30" rx="5.5" fill="#F3CAA2"/>
<rect x="93.75" y="96.5" width="80" height="30" rx="5.5" stroke="#E1B58A"/>
<path d="M100.378 116V107.6H103.834C104.578 107.6 105.214 107.72 105.742 107.96C106.278 108.2 106.69 108.544 106.978 108.992C107.266 109.44 107.41 109.972 107.41 110.588C107.41 111.204 107.266 111.736 106.978 112.184C106.69 112.624 106.278 112.964 105.742 113.204C105.214 113.436 104.578 113.552 103.834 113.552H101.242L101.938 112.844V116H100.378ZM105.874 116L103.75 112.952H105.418L107.554 116H105.874ZM101.938 113.012L101.242 112.268H103.762C104.45 112.268 104.966 112.12 105.31 111.824C105.662 111.528 105.838 111.116 105.838 110.588C105.838 110.052 105.662 109.64 105.31 109.352C104.966 109.064 104.45 108.92 103.762 108.92H101.242L101.938 108.152V113.012ZM110.595 111.092H114.771V112.376H110.595V111.092ZM110.715 114.692H115.455V116H109.155V107.6H115.287V108.908H110.715V114.692ZM119.798 116.12C119.142 116.12 118.514 116.028 117.914 115.844C117.314 115.652 116.838 115.408 116.486 115.112L117.026 113.9C117.362 114.164 117.778 114.384 118.274 114.56C118.77 114.736 119.278 114.824 119.798 114.824C120.238 114.824 120.594 114.776 120.866 114.68C121.138 114.584 121.338 114.456 121.466 114.296C121.594 114.128 121.658 113.94 121.658 113.732C121.658 113.476 121.566 113.272 121.382 113.12C121.198 112.96 120.958 112.836 120.662 112.748C120.374 112.652 120.05 112.564 119.69 112.484C119.338 112.404 118.982 112.312 118.622 112.208C118.27 112.096 117.946 111.956 117.65 111.788C117.362 111.612 117.126 111.38 116.942 111.092C116.758 110.804 116.666 110.436 116.666 109.988C116.666 109.532 116.786 109.116 117.026 108.74C117.274 108.356 117.646 108.052 118.142 107.828C118.646 107.596 119.282 107.48 120.05 107.48C120.554 107.48 121.054 107.544 121.55 107.672C122.046 107.8 122.478 107.984 122.846 108.224L122.354 109.436C121.978 109.212 121.59 109.048 121.19 108.944C120.79 108.832 120.406 108.776 120.038 108.776C119.606 108.776 119.254 108.828 118.982 108.932C118.718 109.036 118.522 109.172 118.394 109.34C118.274 109.508 118.214 109.7 118.214 109.916C118.214 110.172 118.302 110.38 118.478 110.54C118.662 110.692 118.898 110.812 119.186 110.9C119.482 110.988 119.81 111.076 120.17 111.164C120.53 111.244 120.886 111.336 121.238 111.44C121.598 111.544 121.922 111.68 122.21 111.848C122.506 112.016 122.742 112.244 122.918 112.532C123.102 112.82 123.194 113.184 123.194 113.624C123.194 114.072 123.07 114.488 122.822 114.872C122.582 115.248 122.21 115.552 121.706 115.784C121.202 116.008 120.566 116.12 119.798 116.12ZM126.181 111.092H130.357V112.376H126.181V111.092ZM126.301 114.692H131.041V116H124.741V107.6H130.873V108.908H126.301V114.692ZM131.592 116L135.372 107.6H136.908L140.7 116H139.068L135.816 108.428H136.44L133.2 116H131.592ZM133.332 114.056L133.752 112.832H138.288L138.708 114.056H133.332ZM141.769 116V107.6H145.225C145.969 107.6 146.605 107.72 147.133 107.96C147.669 108.2 148.081 108.544 148.369 108.992C148.657 109.44 148.801 109.972 148.801 110.588C148.801 111.204 148.657 111.736 148.369 112.184C148.081 112.624 147.669 112.964 147.133 113.204C146.605 113.436 145.969 113.552 145.225 113.552H142.633L143.329 112.844V116H141.769ZM147.265 116L145.141 112.952H146.809L148.945 116H147.265ZM143.329 113.012L142.633 112.268H145.153C145.841 112.268 146.357 112.12 146.701 111.824C147.053 111.528 147.229 111.116 147.229 110.588C147.229 110.052 147.053 109.64 146.701 109.352C146.357 109.064 145.841 108.92 145.153 108.92H142.633L143.329 108.152V113.012ZM154.434 116.12C153.794 116.12 153.198 116.016 152.646 115.808C152.102 115.592 151.626 115.292 151.218 114.908C150.818 114.516 150.506 114.056 150.282 113.528C150.058 113 149.946 112.424 149.946 111.8C149.946 111.176 150.058 110.6 150.282 110.072C150.506 109.544 150.822 109.088 151.23 108.704C151.638 108.312 152.114 108.012 152.658 107.804C153.202 107.588 153.798 107.48 154.446 107.48C155.134 107.48 155.762 107.6 156.33 107.84C156.898 108.072 157.378 108.42 157.77 108.884L156.762 109.832C156.458 109.504 156.118 109.26 155.742 109.1C155.366 108.932 154.958 108.848 154.518 108.848C154.078 108.848 153.674 108.92 153.306 109.064C152.946 109.208 152.63 109.412 152.358 109.676C152.094 109.94 151.886 110.252 151.734 110.612C151.59 110.972 151.518 111.368 151.518 111.8C151.518 112.232 151.59 112.628 151.734 112.988C151.886 113.348 152.094 113.66 152.358 113.924C152.63 114.188 152.946 114.392 153.306 114.536C153.674 114.68 154.078 114.752 154.518 114.752C154.958 114.752 155.366 114.672 155.742 114.512C156.118 114.344 156.458 114.092 156.762 113.756L157.77 114.716C157.378 115.172 156.898 115.52 156.33 115.76C155.762 116 155.13 116.12 154.434 116.12ZM165.169 107.6H166.729V116H165.169V107.6ZM160.825 116H159.265V107.6H160.825V116ZM165.289 112.4H160.693V111.068H165.289V112.4Z" fill="#222222"/>
<g filter="url(#filter2_d_1_1139)">
<path d="M85.0042 96.0002L81.8729 80.0411L96.25 87.9184L89.1681 89.973L85.0042 96.0002Z" fill="#F3CAA2"/>
<path d="M85.0042 96.0002L81.8729 80.0411L96.25 87.9184L89.1681 89.973L85.0042 96.0002Z" stroke="#E1B58A"/>
</g>
<rect x="28.5" y="181.5" width="81" height="30" rx="5.5" fill="#BAE1BA"/>
<rect x="28.5" y="181.5" width="81" height="30" rx="5.5" stroke="#AAD7AA"/>
<path d="M38.74 201.12C37.588 201.12 36.684 200.796 36.028 200.148C35.38 199.5 35.056 198.564 35.056 197.34V192.6H36.616V197.28C36.616 198.144 36.8 198.772 37.168 199.164C37.544 199.556 38.072 199.752 38.752 199.752C39.432 199.752 39.956 199.556 40.324 199.164C40.692 198.772 40.876 198.144 40.876 197.28V192.6H42.412V197.34C42.412 198.564 42.084 199.5 41.428 200.148C40.78 200.796 39.884 201.12 38.74 201.12ZM43.4596 201L46.9996 196.128V197.304L43.6276 192.6H45.3916L47.8996 196.08L47.1796 196.092L49.6636 192.6H51.3556L48.0076 197.22V196.092L51.5716 201H49.7716L47.1316 197.304H47.8396L45.2356 201H43.4596ZM56.1163 201V192.6H59.7883C60.7003 192.6 61.5003 192.776 62.1883 193.128C62.8763 193.48 63.4123 193.968 63.7963 194.592C64.1803 195.216 64.3723 195.952 64.3723 196.8C64.3723 197.64 64.1803 198.376 63.7963 199.008C63.4123 199.632 62.8763 200.12 62.1883 200.472C61.5003 200.824 60.7003 201 59.7883 201H56.1163ZM57.6763 199.68H59.7163C60.3483 199.68 60.8923 199.56 61.3483 199.32C61.8123 199.08 62.1683 198.744 62.4163 198.312C62.6723 197.88 62.8003 197.376 62.8003 196.8C62.8003 196.216 62.6723 195.712 62.4163 195.288C62.1683 194.856 61.8123 194.52 61.3483 194.28C60.8923 194.04 60.3483 193.92 59.7163 193.92H57.6763V199.68ZM67.4703 196.092H71.6463V197.376H67.4703V196.092ZM67.5903 199.692H72.3303V201H66.0303V192.6H72.1623V193.908H67.5903V199.692ZM76.6734 201.12C76.0174 201.12 75.3894 201.028 74.7894 200.844C74.1894 200.652 73.7134 200.408 73.3614 200.112L73.9014 198.9C74.2374 199.164 74.6534 199.384 75.1494 199.56C75.6454 199.736 76.1534 199.824 76.6734 199.824C77.1134 199.824 77.4694 199.776 77.7414 199.68C78.0134 199.584 78.2134 199.456 78.3414 199.296C78.4694 199.128 78.5334 198.94 78.5334 198.732C78.5334 198.476 78.4414 198.272 78.2574 198.12C78.0734 197.96 77.8334 197.836 77.5374 197.748C77.2494 197.652 76.9254 197.564 76.5654 197.484C76.2134 197.404 75.8574 197.312 75.4974 197.208C75.1454 197.096 74.8214 196.956 74.5254 196.788C74.2374 196.612 74.0014 196.38 73.8174 196.092C73.6334 195.804 73.5414 195.436 73.5414 194.988C73.5414 194.532 73.6614 194.116 73.9014 193.74C74.1494 193.356 74.5214 193.052 75.0174 192.828C75.5214 192.596 76.1574 192.48 76.9254 192.48C77.4294 192.48 77.9294 192.544 78.4254 192.672C78.9214 192.8 79.3534 192.984 79.7214 193.224L79.2294 194.436C78.8534 194.212 78.4654 194.048 78.0654 193.944C77.6654 193.832 77.2814 193.776 76.9134 193.776C76.4814 193.776 76.1294 193.828 75.8574 193.932C75.5934 194.036 75.3974 194.172 75.2694 194.34C75.1494 194.508 75.0894 194.7 75.0894 194.916C75.0894 195.172 75.1774 195.38 75.3534 195.54C75.5374 195.692 75.7734 195.812 76.0614 195.9C76.3574 195.988 76.6854 196.076 77.0454 196.164C77.4054 196.244 77.7614 196.336 78.1134 196.44C78.4734 196.544 78.7974 196.68 79.0854 196.848C79.3814 197.016 79.6174 197.244 79.7934 197.532C79.9774 197.82 80.0694 198.184 80.0694 198.624C80.0694 199.072 79.9454 199.488 79.6974 199.872C79.4574 200.248 79.0854 200.552 78.5814 200.784C78.0774 201.008 77.4414 201.12 76.6734 201.12ZM81.6163 201V192.6H83.1763V201H81.6163ZM89.3723 201.12C88.7163 201.12 88.1123 201.016 87.5603 200.808C87.0163 200.592 86.5403 200.292 86.1323 199.908C85.7243 199.516 85.4083 199.056 85.1843 198.528C84.9603 198 84.8483 197.424 84.8483 196.8C84.8483 196.176 84.9603 195.6 85.1843 195.072C85.4083 194.544 85.7243 194.088 86.1323 193.704C86.5483 193.312 87.0323 193.012 87.5843 192.804C88.1363 192.588 88.7403 192.48 89.3963 192.48C90.1083 192.48 90.7483 192.596 91.3163 192.828C91.8923 193.06 92.3763 193.4 92.7683 193.848L91.7843 194.808C91.4563 194.48 91.1003 194.24 90.7163 194.088C90.3403 193.928 89.9243 193.848 89.4683 193.848C89.0283 193.848 88.6203 193.92 88.2443 194.064C87.8683 194.208 87.5443 194.412 87.2723 194.676C87.0003 194.94 86.7883 195.252 86.6363 195.612C86.4923 195.972 86.4203 196.368 86.4203 196.8C86.4203 197.224 86.4923 197.616 86.6363 197.976C86.7883 198.336 87.0003 198.652 87.2723 198.924C87.5443 199.188 87.8643 199.392 88.2323 199.536C88.6003 199.68 89.0083 199.752 89.4563 199.752C89.8723 199.752 90.2723 199.688 90.6563 199.56C91.0483 199.424 91.4203 199.2 91.7723 198.888L92.6603 200.052C92.2203 200.404 91.7083 200.672 91.1243 200.856C90.5483 201.032 89.9643 201.12 89.3723 201.12ZM91.1843 199.848V196.704H92.6603V200.052L91.1843 199.848ZM94.7178 201V192.6H96.0018L101.27 199.068H100.634V192.6H102.182V201H100.898L95.6298 194.532H96.2658V201H94.7178Z" fill="#222222"/>
<g filter="url(#filter3_d_1_1139)">
<path d="M19.7542 181L16.6229 165.041L31 172.918L23.9181 174.973L19.7542 181Z" fill="#BAE1BA"/>
<path d="M19.7542 181L16.6229 165.041L31 172.918L23.9181 174.973L19.7542 181Z" stroke="#AAD7AA"/>
</g>
<rect x="210.75" y="171.5" width="102" height="30" rx="5.5" fill="#F4B7E6"/>
<rect x="210.75" y="171.5" width="102" height="30" rx="5.5" stroke="#DDA7D0"/>
<path d="M217.378 191V182.6H220.834C221.578 182.6 222.214 182.72 222.742 182.96C223.278 183.2 223.69 183.544 223.978 183.992C224.266 184.44 224.41 184.972 224.41 185.588C224.41 186.204 224.266 186.736 223.978 187.184C223.69 187.632 223.278 187.976 222.742 188.216C222.214 188.456 221.578 188.576 220.834 188.576H218.242L218.938 187.844V191H217.378ZM218.938 188.012L218.242 187.256H220.762C221.45 187.256 221.966 187.112 222.31 186.824C222.662 186.528 222.838 186.116 222.838 185.588C222.838 185.052 222.662 184.64 222.31 184.352C221.966 184.064 221.45 183.92 220.762 183.92H218.242L218.938 183.152V188.012ZM225.968 191V182.6H229.424C230.168 182.6 230.804 182.72 231.332 182.96C231.868 183.2 232.28 183.544 232.568 183.992C232.856 184.44 233 184.972 233 185.588C233 186.204 232.856 186.736 232.568 187.184C232.28 187.624 231.868 187.964 231.332 188.204C230.804 188.436 230.168 188.552 229.424 188.552H226.832L227.528 187.844V191H225.968ZM231.464 191L229.34 187.952H231.008L233.144 191H231.464ZM227.528 188.012L226.832 187.268H229.352C230.04 187.268 230.556 187.12 230.9 186.824C231.252 186.528 231.428 186.116 231.428 185.588C231.428 185.052 231.252 184.64 230.9 184.352C230.556 184.064 230.04 183.92 229.352 183.92H226.832L227.528 183.152V188.012ZM238.681 191.12C238.025 191.12 237.421 191.012 236.869 190.796C236.317 190.58 235.837 190.28 235.429 189.896C235.021 189.504 234.705 189.048 234.481 188.528C234.257 188 234.145 187.424 234.145 186.8C234.145 186.176 234.257 185.604 234.481 185.084C234.705 184.556 235.021 184.1 235.429 183.716C235.837 183.324 236.317 183.02 236.869 182.804C237.421 182.588 238.021 182.48 238.669 182.48C239.325 182.48 239.925 182.588 240.469 182.804C241.021 183.02 241.501 183.324 241.909 183.716C242.317 184.1 242.633 184.556 242.857 185.084C243.081 185.604 243.193 186.176 243.193 186.8C243.193 187.424 243.081 188 242.857 188.528C242.633 189.056 242.317 189.512 241.909 189.896C241.501 190.28 241.021 190.58 240.469 190.796C239.925 191.012 239.329 191.12 238.681 191.12ZM238.669 189.752C239.093 189.752 239.485 189.68 239.845 189.536C240.205 189.392 240.517 189.188 240.781 188.924C241.045 188.652 241.249 188.34 241.393 187.988C241.545 187.628 241.621 187.232 241.621 186.8C241.621 186.368 241.545 185.976 241.393 185.624C241.249 185.264 241.045 184.952 240.781 184.688C240.517 184.416 240.205 184.208 239.845 184.064C239.485 183.92 239.093 183.848 238.669 183.848C238.245 183.848 237.853 183.92 237.493 184.064C237.141 184.208 236.829 184.416 236.557 184.688C236.293 184.952 236.085 185.264 235.933 185.624C235.789 185.976 235.717 186.368 235.717 186.8C235.717 187.224 235.789 187.616 235.933 187.976C236.085 188.336 236.293 188.652 236.557 188.924C236.821 189.188 237.133 189.392 237.493 189.536C237.853 189.68 238.245 189.752 238.669 189.752ZM246.434 191V183.92H243.65V182.6H250.778V183.92H247.994V191H246.434ZM255.767 191.12C255.111 191.12 254.507 191.012 253.955 190.796C253.403 190.58 252.923 190.28 252.515 189.896C252.107 189.504 251.791 189.048 251.567 188.528C251.343 188 251.231 187.424 251.231 186.8C251.231 186.176 251.343 185.604 251.567 185.084C251.791 184.556 252.107 184.1 252.515 183.716C252.923 183.324 253.403 183.02 253.955 182.804C254.507 182.588 255.107 182.48 255.755 182.48C256.411 182.48 257.011 182.588 257.555 182.804C258.107 183.02 258.587 183.324 258.995 183.716C259.403 184.1 259.719 184.556 259.943 185.084C260.167 185.604 260.279 186.176 260.279 186.8C260.279 187.424 260.167 188 259.943 188.528C259.719 189.056 259.403 189.512 258.995 189.896C258.587 190.28 258.107 190.58 257.555 190.796C257.011 191.012 256.415 191.12 255.767 191.12ZM255.755 189.752C256.179 189.752 256.571 189.68 256.931 189.536C257.291 189.392 257.603 189.188 257.867 188.924C258.131 188.652 258.335 188.34 258.479 187.988C258.631 187.628 258.707 187.232 258.707 186.8C258.707 186.368 258.631 185.976 258.479 185.624C258.335 185.264 258.131 184.952 257.867 184.688C257.603 184.416 257.291 184.208 256.931 184.064C256.571 183.92 256.179 183.848 255.755 183.848C255.331 183.848 254.939 183.92 254.579 184.064C254.227 184.208 253.915 184.416 253.643 184.688C253.379 184.952 253.171 185.264 253.019 185.624C252.875 185.976 252.803 186.368 252.803 186.8C252.803 187.224 252.875 187.616 253.019 187.976C253.171 188.336 253.379 188.652 253.643 188.924C253.907 189.188 254.219 189.392 254.579 189.536C254.939 189.68 255.331 189.752 255.755 189.752ZM263.52 191V183.92H260.736V182.6H267.864V183.92H265.08V191H263.52ZM270.969 191V187.676L271.317 188.636L267.669 182.6H269.337L272.265 187.46H271.329L274.281 182.6H275.817L272.169 188.636L272.529 187.676V191H270.969ZM276.733 191V182.6H280.189C280.933 182.6 281.569 182.72 282.097 182.96C282.633 183.2 283.045 183.544 283.333 183.992C283.621 184.44 283.765 184.972 283.765 185.588C283.765 186.204 283.621 186.736 283.333 187.184C283.045 187.632 282.633 187.976 282.097 188.216C281.569 188.456 280.933 188.576 280.189 188.576H277.597L278.293 187.844V191H276.733ZM278.293 188.012L277.597 187.256H280.117C280.805 187.256 281.321 187.112 281.665 186.824C282.017 186.528 282.193 186.116 282.193 185.588C282.193 185.052 282.017 184.64 281.665 184.352C281.321 184.064 280.805 183.92 280.117 183.92H277.597L278.293 183.152V188.012ZM285.323 191V182.6H286.883V191H285.323ZM289.155 191V182.6H290.439L295.707 189.068H295.071V182.6H296.619V191H295.335L290.067 184.532H290.703V191H289.155ZM302.794 191.12C302.138 191.12 301.534 191.016 300.982 190.808C300.438 190.592 299.962 190.292 299.554 189.908C299.146 189.516 298.83 189.056 298.606 188.528C298.382 188 298.27 187.424 298.27 186.8C298.27 186.176 298.382 185.6 298.606 185.072C298.83 184.544 299.146 184.088 299.554 183.704C299.97 183.312 300.454 183.012 301.006 182.804C301.558 182.588 302.162 182.48 302.818 182.48C303.53 182.48 304.17 182.596 304.738 182.828C305.314 183.06 305.798 183.4 306.19 183.848L305.206 184.808C304.878 184.48 304.522 184.24 304.138 184.088C303.762 183.928 303.346 183.848 302.89 183.848C302.45 183.848 302.042 183.92 301.666 184.064C301.29 184.208 300.966 184.412 300.694 184.676C300.422 184.94 300.21 185.252 300.058 185.612C299.914 185.972 299.842 186.368 299.842 186.8C299.842 187.224 299.914 187.616 300.058 187.976C300.21 188.336 300.422 188.652 300.694 188.924C300.966 189.188 301.286 189.392 301.654 189.536C302.022 189.68 302.43 189.752 302.878 189.752C303.294 189.752 303.694 189.688 304.078 189.56C304.47 189.424 304.842 189.2 305.194 188.888L306.082 190.052C305.642 190.404 305.13 190.672 304.546 190.856C303.97 191.032 303.386 191.12 302.794 191.12ZM304.606 189.848V186.704H306.082V190.052L304.606 189.848Z" fill="#222222"/>
<g filter="url(#filter4_d_1_1139)">
<path d="M202.004 171L198.873 155.041L213.25 162.918L206.168 164.973L202.004 171Z" fill="#F4B7E6"/>
<path d="M202.004 171L198.873 155.041L213.25 162.918L206.168 164.973L202.004 171Z" stroke="#DDA7D0"/>
</g>
<defs>
<filter id="filter0_d_1_1139" x="3.6748" y="2.09082" width="20.3721" height="22.1733" filterUnits="userSpaceOnUse" color-interpolation-filters="sRGB">
<feFlood flood-opacity="0" result="BackgroundImageFix"/>
<feColorMatrix in="SourceAlpha" type="matrix" values="0 0 0 0 0 0 0 0 0 0 0 0 0 0 0 0 0 0 127 0" result="hardAlpha"/>
<feOffset dy="1"/>
<feGaussianBlur stdDeviation="1"/>
<feComposite in2="hardAlpha" operator="out"/>
<feColorMatrix type="matrix" values="0 0 0 0 0 0 0 0 0 0 0 0 0 0 0 0 0 0 0.25 0"/>
<feBlend mode="normal" in2="BackgroundImageFix" result="effect1_dropShadow_1_1139"/>
<feBlend mode="normal" in="SourceGraphic" in2="effect1_dropShadow_1_1139" result="shape"/>
</filter>
<filter id="filter1_d_1_1139" x="182.675" y="22.0908" width="20.3721" height="22.1733" filterUnits="userSpaceOnUse" color-interpolation-filters="sRGB">
<feFlood flood-opacity="0" result="BackgroundImageFix"/>
<feColorMatrix in="SourceAlpha" type="matrix" values="0 0 0 0 0 0 0 0 0 0 0 0 0 0 0 0 0 0 127 0" result="hardAlpha"/>
<feOffset dy="1"/>
<feGaussianBlur stdDeviation="1"/>
<feComposite in2="hardAlpha" operator="out"/>
<feColorMatrix type="matrix" values="0 0 0 0 0 0 0 0 0 0 0 0 0 0 0 0 0 0 0.25 0"/>
<feBlend mode="normal" in2="BackgroundImageFix" result="effect1_dropShadow_1_1139"/>
<feBlend mode="normal" in="SourceGraphic" in2="effect1_dropShadow_1_1139" result="shape"/>
</filter>
<filter id="filter2_d_1_1139" x="79.1748" y="78.0908" width="20.3721" height="22.1733" filterUnits="userSpaceOnUse" color-interpolation-filters="sRGB">
<feFlood flood-opacity="0" result="BackgroundImageFix"/>
<feColorMatrix in="SourceAlpha" type="matrix" values="0 0 0 0 0 0 0 0 0 0 0 0 0 0 0 0 0 0 127 0" result="hardAlpha"/>
<feOffset dy="1"/>
<feGaussianBlur stdDeviation="1"/>
<feComposite in2="hardAlpha" operator="out"/>
<feColorMatrix type="matrix" values="0 0 0 0 0 0 0 0 0 0 0 0 0 0 0 0 0 0 0.25 0"/>
<feBlend mode="normal" in2="BackgroundImageFix" result="effect1_dropShadow_1_1139"/>
<feBlend mode="normal" in="SourceGraphic" in2="effect1_dropShadow_1_1139" result="shape"/>
</filter>
<filter id="filter3_d_1_1139" x="13.9248" y="163.091" width="20.3721" height="22.1733" filterUnits="userSpaceOnUse" color-interpolation-filters="sRGB">
<feFlood flood-opacity="0" result="BackgroundImageFix"/>
<feColorMatrix in="SourceAlpha" type="matrix" values="0 0 0 0 0 0 0 0 0 0 0 0 0 0 0 0 0 0 127 0" result="hardAlpha"/>
<feOffset dy="1"/>
<feGaussianBlur stdDeviation="1"/>
<feComposite in2="hardAlpha" operator="out"/>
<feColorMatrix type="matrix" values="0 0 0 0 0 0 0 0 0 0 0 0 0 0 0 0 0 0 0.25 0"/>
<feBlend mode="normal" in2="BackgroundImageFix" result="effect1_dropShadow_1_1139"/>
<feBlend mode="normal" in="SourceGraphic" in2="effect1_dropShadow_1_1139" result="shape"/>
</filter>
<filter id="filter4_d_1_1139" x="196.175" y="153.091" width="20.3721" height="22.1733" filterUnits="userSpaceOnUse" color-interpolation-filters="sRGB">
<feFlood flood-opacity="0" result="BackgroundImageFix"/>
<feColorMatrix in="SourceAlpha" type="matrix" values="0 0 0 0 0 0 0 0 0 0 0 0 0 0 0 0 0 0 127 0" result="hardAlpha"/>
<feOffset dy="1"/>
<feGaussianBlur stdDeviation="1"/>
<feComposite in2="hardAlpha" operator="out"/>
<feColorMatrix type="matrix" values="0 0 0 0 0 0 0 0 0 0 0 0 0 0 0 0 0 0 0.25 0"/>
<feBlend mode="normal" in2="BackgroundImageFix" result="effect1_dropShadow_1_1139"/>
<feBlend mode="normal" in="SourceGraphic" in2="effect1_dropShadow_1_1139" result="shape"/>
</filter>
</defs>
</svg>
