<svg width="592" height="127" viewBox="0 0 592 127" fill="none" xmlns="http://www.w3.org/2000/svg">
<rect x="18" y="20.5" width="76" height="30" rx="5.5" fill="#A5CBF1"/>
<rect x="18" y="20.5" width="76" height="30" rx="5.5" stroke="#98BBDD"/>
<path d="M28.24 40.12C27.088 40.12 26.184 39.796 25.528 39.148C24.88 38.5 24.556 37.564 24.556 36.34V31.6H26.116V36.28C26.116 37.144 26.3 37.772 26.668 38.164C27.044 38.556 27.572 38.752 28.252 38.752C28.932 38.752 29.456 38.556 29.824 38.164C30.192 37.772 30.376 37.144 30.376 36.28V31.6H31.912V36.34C31.912 37.564 31.584 38.5 30.928 39.148C30.28 39.796 29.384 40.12 28.24 40.12ZM34.0968 40V31.6H35.6568V40H34.0968ZM41.2452 40V31.6H44.9172C45.8292 31.6 46.6292 31.776 47.3172 32.128C48.0052 32.48 48.5412 32.968 48.9252 33.592C49.3092 34.216 49.5012 34.952 49.5012 35.8C49.5012 36.64 49.3092 37.376 48.9252 38.008C48.5412 38.632 48.0052 39.12 47.3172 39.472C46.6292 39.824 45.8292 40 44.9172 40H41.2452ZM42.8052 38.68H44.8452C45.4772 38.68 46.0212 38.56 46.4772 38.32C46.9412 38.08 47.2972 37.744 47.5452 37.312C47.8012 36.88 47.9292 36.376 47.9292 35.8C47.9292 35.216 47.8012 34.712 47.5452 34.288C47.2972 33.856 46.9412 33.52 46.4772 33.28C46.0212 33.04 45.4772 32.92 44.8452 32.92H42.8052V38.68ZM52.5993 35.092H56.7753V36.376H52.5993V35.092ZM52.7193 38.692H57.4593V40H51.1593V31.6H57.2913V32.908H52.7193V38.692ZM61.8023 40.12C61.1463 40.12 60.5183 40.028 59.9183 39.844C59.3183 39.652 58.8423 39.408 58.4903 39.112L59.0303 37.9C59.3663 38.164 59.7823 38.384 60.2783 38.56C60.7743 38.736 61.2823 38.824 61.8023 38.824C62.2423 38.824 62.5983 38.776 62.8703 38.68C63.1423 38.584 63.3423 38.456 63.4703 38.296C63.5983 38.128 63.6623 37.94 63.6623 37.732C63.6623 37.476 63.5703 37.272 63.3863 37.12C63.2023 36.96 62.9623 36.836 62.6663 36.748C62.3783 36.652 62.0543 36.564 61.6943 36.484C61.3423 36.404 60.9863 36.312 60.6263 36.208C60.2743 36.096 59.9503 35.956 59.6543 35.788C59.3663 35.612 59.1303 35.38 58.9463 35.092C58.7623 34.804 58.6703 34.436 58.6703 33.988C58.6703 33.532 58.7903 33.116 59.0303 32.74C59.2783 32.356 59.6503 32.052 60.1463 31.828C60.6503 31.596 61.2863 31.48 62.0543 31.48C62.5583 31.48 63.0583 31.544 63.5543 31.672C64.0503 31.8 64.4823 31.984 64.8503 32.224L64.3583 33.436C63.9823 33.212 63.5943 33.048 63.1943 32.944C62.7943 32.832 62.4103 32.776 62.0423 32.776C61.6103 32.776 61.2583 32.828 60.9863 32.932C60.7223 33.036 60.5263 33.172 60.3983 33.34C60.2783 33.508 60.2183 33.7 60.2183 33.916C60.2183 34.172 60.3063 34.38 60.4823 34.54C60.6663 34.692 60.9023 34.812 61.1903 34.9C61.4863 34.988 61.8143 35.076 62.1743 35.164C62.5343 35.244 62.8903 35.336 63.2423 35.44C63.6023 35.544 63.9263 35.68 64.2143 35.848C64.5103 36.016 64.7463 36.244 64.9223 36.532C65.1063 36.82 65.1983 37.184 65.1983 37.624C65.1983 38.072 65.0743 38.488 64.8263 38.872C64.5863 39.248 64.2143 39.552 63.7103 39.784C63.2063 40.008 62.5703 40.12 61.8023 40.12ZM66.7452 40V31.6H68.3052V40H66.7452ZM74.5012 40.12C73.8452 40.12 73.2412 40.016 72.6892 39.808C72.1452 39.592 71.6692 39.292 71.2612 38.908C70.8532 38.516 70.5372 38.056 70.3132 37.528C70.0892 37 69.9772 36.424 69.9772 35.8C69.9772 35.176 70.0892 34.6 70.3132 34.072C70.5372 33.544 70.8532 33.088 71.2612 32.704C71.6772 32.312 72.1612 32.012 72.7132 31.804C73.2652 31.588 73.8692 31.48 74.5252 31.48C75.2372 31.48 75.8772 31.596 76.4452 31.828C77.0212 32.06 77.5052 32.4 77.8972 32.848L76.9132 33.808C76.5852 33.48 76.2292 33.24 75.8452 33.088C75.4692 32.928 75.0532 32.848 74.5972 32.848C74.1572 32.848 73.7492 32.92 73.3732 33.064C72.9972 33.208 72.6732 33.412 72.4012 33.676C72.1292 33.94 71.9172 34.252 71.7652 34.612C71.6212 34.972 71.5492 35.368 71.5492 35.8C71.5492 36.224 71.6212 36.616 71.7652 36.976C71.9172 37.336 72.1292 37.652 72.4012 37.924C72.6732 38.188 72.9932 38.392 73.3612 38.536C73.7292 38.68 74.1372 38.752 74.5852 38.752C75.0012 38.752 75.4012 38.688 75.7852 38.56C76.1772 38.424 76.5492 38.2 76.9012 37.888L77.7892 39.052C77.3492 39.404 76.8372 39.672 76.2532 39.856C75.6772 40.032 75.0932 40.12 74.5012 40.12ZM76.3132 38.848V35.704H77.7892V39.052L76.3132 38.848ZM79.8468 40V31.6H81.1308L86.3988 38.068H85.7628V31.6H87.3108V40H86.0268L80.7588 33.532H81.3948V40H79.8468Z" fill="#222222"/>
<g filter="url(#filter0_d_1_1061)">
<path d="M9.25418 20L6.12291 4.04089L20.5 11.9182L13.4181 13.9727L9.25418 20Z" fill="#A5CBF1"/>
<path d="M9.25418 20L6.12291 4.04089L20.5 11.9182L13.4181 13.9727L9.25418 20Z" stroke="#98BBDD"/>
</g>
<rect x="197" y="40.5" width="112" height="30" rx="5.5" fill="#CBBCF3"/>
<rect x="197" y="40.5" width="112" height="30" rx="5.5" stroke="#B9A7E8"/>
<path d="M203.628 60V51.6H207.3C208.212 51.6 209.012 51.776 209.7 52.128C210.388 52.48 210.924 52.968 211.308 53.592C211.692 54.216 211.884 54.952 211.884 55.8C211.884 56.64 211.692 57.376 211.308 58.008C210.924 58.632 210.388 59.12 209.7 59.472C209.012 59.824 208.212 60 207.3 60H203.628ZM205.188 58.68H207.228C207.86 58.68 208.404 58.56 208.86 58.32C209.324 58.08 209.68 57.744 209.928 57.312C210.184 56.88 210.312 56.376 210.312 55.8C210.312 55.216 210.184 54.712 209.928 54.288C209.68 53.856 209.324 53.52 208.86 53.28C208.404 53.04 207.86 52.92 207.228 52.92H205.188V58.68ZM214.982 55.092H219.158V56.376H214.982V55.092ZM215.102 58.692H219.842V60H213.542V51.6H219.674V52.908H215.102V58.692ZM224.185 60.12C223.529 60.12 222.901 60.028 222.301 59.844C221.701 59.652 221.225 59.408 220.873 59.112L221.413 57.9C221.749 58.164 222.165 58.384 222.661 58.56C223.157 58.736 223.665 58.824 224.185 58.824C224.625 58.824 224.981 58.776 225.253 58.68C225.525 58.584 225.725 58.456 225.853 58.296C225.981 58.128 226.045 57.94 226.045 57.732C226.045 57.476 225.953 57.272 225.769 57.12C225.585 56.96 225.345 56.836 225.049 56.748C224.761 56.652 224.437 56.564 224.077 56.484C223.725 56.404 223.369 56.312 223.009 56.208C222.657 56.096 222.333 55.956 222.037 55.788C221.749 55.612 221.513 55.38 221.329 55.092C221.145 54.804 221.053 54.436 221.053 53.988C221.053 53.532 221.173 53.116 221.413 52.74C221.661 52.356 222.033 52.052 222.529 51.828C223.033 51.596 223.669 51.48 224.437 51.48C224.941 51.48 225.441 51.544 225.937 51.672C226.433 51.8 226.865 51.984 227.233 52.224L226.741 53.436C226.365 53.212 225.977 53.048 225.577 52.944C225.177 52.832 224.793 52.776 224.425 52.776C223.993 52.776 223.641 52.828 223.369 52.932C223.105 53.036 222.909 53.172 222.781 53.34C222.661 53.508 222.601 53.7 222.601 53.916C222.601 54.172 222.689 54.38 222.865 54.54C223.049 54.692 223.285 54.812 223.573 54.9C223.869 54.988 224.197 55.076 224.557 55.164C224.917 55.244 225.273 55.336 225.625 55.44C225.985 55.544 226.309 55.68 226.597 55.848C226.893 56.016 227.129 56.244 227.305 56.532C227.489 56.82 227.581 57.184 227.581 57.624C227.581 58.072 227.457 58.488 227.209 58.872C226.969 59.248 226.597 59.552 226.093 59.784C225.589 60.008 224.953 60.12 224.185 60.12ZM229.128 60V51.6H230.688V60H229.128ZM236.884 60.12C236.228 60.12 235.624 60.016 235.072 59.808C234.528 59.592 234.052 59.292 233.644 58.908C233.236 58.516 232.92 58.056 232.696 57.528C232.472 57 232.36 56.424 232.36 55.8C232.36 55.176 232.472 54.6 232.696 54.072C232.92 53.544 233.236 53.088 233.644 52.704C234.06 52.312 234.544 52.012 235.096 51.804C235.648 51.588 236.252 51.48 236.908 51.48C237.62 51.48 238.26 51.596 238.828 51.828C239.404 52.06 239.888 52.4 240.28 52.848L239.296 53.808C238.968 53.48 238.612 53.24 238.228 53.088C237.852 52.928 237.436 52.848 236.98 52.848C236.54 52.848 236.132 52.92 235.756 53.064C235.38 53.208 235.056 53.412 234.784 53.676C234.512 53.94 234.3 54.252 234.148 54.612C234.004 54.972 233.932 55.368 233.932 55.8C233.932 56.224 234.004 56.616 234.148 56.976C234.3 57.336 234.512 57.652 234.784 57.924C235.056 58.188 235.376 58.392 235.744 58.536C236.112 58.68 236.52 58.752 236.968 58.752C237.384 58.752 237.784 58.688 238.168 58.56C238.56 58.424 238.932 58.2 239.284 57.888L240.172 59.052C239.732 59.404 239.22 59.672 238.636 59.856C238.06 60.032 237.476 60.12 236.884 60.12ZM238.696 58.848V55.704H240.172V59.052L238.696 58.848ZM242.23 60V51.6H243.514L248.782 58.068H248.146V51.6H249.694V60H248.41L243.142 53.532H243.778V60H242.23ZM257.865 60.12C257.209 60.12 256.581 60.028 255.981 59.844C255.381 59.652 254.905 59.408 254.553 59.112L255.093 57.9C255.429 58.164 255.845 58.384 256.341 58.56C256.837 58.736 257.345 58.824 257.865 58.824C258.305 58.824 258.661 58.776 258.933 58.68C259.205 58.584 259.405 58.456 259.533 58.296C259.661 58.128 259.725 57.94 259.725 57.732C259.725 57.476 259.633 57.272 259.449 57.12C259.265 56.96 259.025 56.836 258.729 56.748C258.441 56.652 258.117 56.564 257.757 56.484C257.405 56.404 257.049 56.312 256.689 56.208C256.337 56.096 256.013 55.956 255.717 55.788C255.429 55.612 255.193 55.38 255.009 55.092C254.825 54.804 254.733 54.436 254.733 53.988C254.733 53.532 254.853 53.116 255.093 52.74C255.341 52.356 255.713 52.052 256.209 51.828C256.713 51.596 257.349 51.48 258.117 51.48C258.621 51.48 259.121 51.544 259.617 51.672C260.113 51.8 260.545 51.984 260.913 52.224L260.421 53.436C260.045 53.212 259.657 53.048 259.257 52.944C258.857 52.832 258.473 52.776 258.105 52.776C257.673 52.776 257.321 52.828 257.049 52.932C256.785 53.036 256.589 53.172 256.461 53.34C256.341 53.508 256.281 53.7 256.281 53.916C256.281 54.172 256.369 54.38 256.545 54.54C256.729 54.692 256.965 54.812 257.253 54.9C257.549 54.988 257.877 55.076 258.237 55.164C258.597 55.244 258.953 55.336 259.305 55.44C259.665 55.544 259.989 55.68 260.277 55.848C260.573 56.016 260.809 56.244 260.985 56.532C261.169 56.82 261.261 57.184 261.261 57.624C261.261 58.072 261.137 58.488 260.889 58.872C260.649 59.248 260.277 59.552 259.773 59.784C259.269 60.008 258.633 60.12 257.865 60.12ZM264.696 60V56.676L265.044 57.636L261.396 51.6H263.064L265.992 56.46H265.056L268.008 51.6H269.544L265.896 57.636L266.256 56.676V60H264.696ZM272.994 60.12C272.338 60.12 271.71 60.028 271.11 59.844C270.51 59.652 270.034 59.408 269.682 59.112L270.222 57.9C270.558 58.164 270.974 58.384 271.47 58.56C271.966 58.736 272.474 58.824 272.994 58.824C273.434 58.824 273.79 58.776 274.062 58.68C274.334 58.584 274.534 58.456 274.662 58.296C274.79 58.128 274.854 57.94 274.854 57.732C274.854 57.476 274.762 57.272 274.578 57.12C274.394 56.96 274.154 56.836 273.858 56.748C273.57 56.652 273.246 56.564 272.886 56.484C272.534 56.404 272.178 56.312 271.818 56.208C271.466 56.096 271.142 55.956 270.846 55.788C270.558 55.612 270.322 55.38 270.138 55.092C269.954 54.804 269.862 54.436 269.862 53.988C269.862 53.532 269.982 53.116 270.222 52.74C270.47 52.356 270.842 52.052 271.338 51.828C271.842 51.596 272.478 51.48 273.246 51.48C273.75 51.48 274.25 51.544 274.746 51.672C275.242 51.8 275.674 51.984 276.042 52.224L275.55 53.436C275.174 53.212 274.786 53.048 274.386 52.944C273.986 52.832 273.602 52.776 273.234 52.776C272.802 52.776 272.45 52.828 272.178 52.932C271.914 53.036 271.718 53.172 271.59 53.34C271.47 53.508 271.41 53.7 271.41 53.916C271.41 54.172 271.498 54.38 271.674 54.54C271.858 54.692 272.094 54.812 272.382 54.9C272.678 54.988 273.006 55.076 273.366 55.164C273.726 55.244 274.082 55.336 274.434 55.44C274.794 55.544 275.118 55.68 275.406 55.848C275.702 56.016 275.938 56.244 276.114 56.532C276.298 56.82 276.39 57.184 276.39 57.624C276.39 58.072 276.266 58.488 276.018 58.872C275.778 59.248 275.406 59.552 274.902 59.784C274.398 60.008 273.762 60.12 272.994 60.12ZM279.523 60V52.92H276.739V51.6H283.867V52.92H281.083V60H279.523ZM286.478 55.092H290.654V56.376H286.478V55.092ZM286.598 58.692H291.338V60H285.038V51.6H291.17V52.908H286.598V58.692ZM293.077 60V51.6H294.361L298.033 57.732H297.361L300.973 51.6H302.257L302.269 60H300.793L300.781 53.916H301.093L298.021 59.04H297.325L294.205 53.916H294.565V60H293.077Z" fill="#222222"/>
<g filter="url(#filter1_d_1_1061)">
<path d="M188.254 40L185.123 24.0409L199.5 31.9182L192.418 33.9727L188.254 40Z" fill="#CBBCF3"/>
<path d="M188.254 40L185.123 24.0409L199.5 31.9182L192.418 33.9727L188.254 40Z" stroke="#B9A7E8"/>
</g>
<rect x="93.5" y="96.5" width="80" height="30" rx="5.5" fill="#F3CAA2"/>
<rect x="93.5" y="96.5" width="80" height="30" rx="5.5" stroke="#E1B58A"/>
<path d="M100.128 116V107.6H103.584C104.328 107.6 104.964 107.72 105.492 107.96C106.028 108.2 106.44 108.544 106.728 108.992C107.016 109.44 107.16 109.972 107.16 110.588C107.16 111.204 107.016 111.736 106.728 112.184C106.44 112.624 106.028 112.964 105.492 113.204C104.964 113.436 104.328 113.552 103.584 113.552H100.992L101.688 112.844V116H100.128ZM105.624 116L103.5 112.952H105.168L107.304 116H105.624ZM101.688 113.012L100.992 112.268H103.512C104.2 112.268 104.716 112.12 105.06 111.824C105.412 111.528 105.588 111.116 105.588 110.588C105.588 110.052 105.412 109.64 105.06 109.352C104.716 109.064 104.2 108.92 103.512 108.92H100.992L101.688 108.152V113.012ZM110.345 111.092H114.521V112.376H110.345V111.092ZM110.465 114.692H115.205V116H108.905V107.6H115.037V108.908H110.465V114.692ZM119.548 116.12C118.892 116.12 118.264 116.028 117.664 115.844C117.064 115.652 116.588 115.408 116.236 115.112L116.776 113.9C117.112 114.164 117.528 114.384 118.024 114.56C118.52 114.736 119.028 114.824 119.548 114.824C119.988 114.824 120.344 114.776 120.616 114.68C120.888 114.584 121.088 114.456 121.216 114.296C121.344 114.128 121.408 113.94 121.408 113.732C121.408 113.476 121.316 113.272 121.132 113.12C120.948 112.96 120.708 112.836 120.412 112.748C120.124 112.652 119.8 112.564 119.44 112.484C119.088 112.404 118.732 112.312 118.372 112.208C118.02 112.096 117.696 111.956 117.4 111.788C117.112 111.612 116.876 111.38 116.692 111.092C116.508 110.804 116.416 110.436 116.416 109.988C116.416 109.532 116.536 109.116 116.776 108.74C117.024 108.356 117.396 108.052 117.892 107.828C118.396 107.596 119.032 107.48 119.8 107.48C120.304 107.48 120.804 107.544 121.3 107.672C121.796 107.8 122.228 107.984 122.596 108.224L122.104 109.436C121.728 109.212 121.34 109.048 120.94 108.944C120.54 108.832 120.156 108.776 119.788 108.776C119.356 108.776 119.004 108.828 118.732 108.932C118.468 109.036 118.272 109.172 118.144 109.34C118.024 109.508 117.964 109.7 117.964 109.916C117.964 110.172 118.052 110.38 118.228 110.54C118.412 110.692 118.648 110.812 118.936 110.9C119.232 110.988 119.56 111.076 119.92 111.164C120.28 111.244 120.636 111.336 120.988 111.44C121.348 111.544 121.672 111.68 121.96 111.848C122.256 112.016 122.492 112.244 122.668 112.532C122.852 112.82 122.944 113.184 122.944 113.624C122.944 114.072 122.82 114.488 122.572 114.872C122.332 115.248 121.96 115.552 121.456 115.784C120.952 116.008 120.316 116.12 119.548 116.12ZM125.931 111.092H130.107V112.376H125.931V111.092ZM126.051 114.692H130.791V116H124.491V107.6H130.623V108.908H126.051V114.692ZM131.342 116L135.122 107.6H136.658L140.45 116H138.818L135.566 108.428H136.19L132.95 116H131.342ZM133.082 114.056L133.502 112.832H138.038L138.458 114.056H133.082ZM141.519 116V107.6H144.975C145.719 107.6 146.355 107.72 146.883 107.96C147.419 108.2 147.831 108.544 148.119 108.992C148.407 109.44 148.551 109.972 148.551 110.588C148.551 111.204 148.407 111.736 148.119 112.184C147.831 112.624 147.419 112.964 146.883 113.204C146.355 113.436 145.719 113.552 144.975 113.552H142.383L143.079 112.844V116H141.519ZM147.015 116L144.891 112.952H146.559L148.695 116H147.015ZM143.079 113.012L142.383 112.268H144.903C145.591 112.268 146.107 112.12 146.451 111.824C146.803 111.528 146.979 111.116 146.979 110.588C146.979 110.052 146.803 109.64 146.451 109.352C146.107 109.064 145.591 108.92 144.903 108.92H142.383L143.079 108.152V113.012ZM154.184 116.12C153.544 116.12 152.948 116.016 152.396 115.808C151.852 115.592 151.376 115.292 150.968 114.908C150.568 114.516 150.256 114.056 150.032 113.528C149.808 113 149.696 112.424 149.696 111.8C149.696 111.176 149.808 110.6 150.032 110.072C150.256 109.544 150.572 109.088 150.98 108.704C151.388 108.312 151.864 108.012 152.408 107.804C152.952 107.588 153.548 107.48 154.196 107.48C154.884 107.48 155.512 107.6 156.08 107.84C156.648 108.072 157.128 108.42 157.52 108.884L156.512 109.832C156.208 109.504 155.868 109.26 155.492 109.1C155.116 108.932 154.708 108.848 154.268 108.848C153.828 108.848 153.424 108.92 153.056 109.064C152.696 109.208 152.38 109.412 152.108 109.676C151.844 109.94 151.636 110.252 151.484 110.612C151.34 110.972 151.268 111.368 151.268 111.8C151.268 112.232 151.34 112.628 151.484 112.988C151.636 113.348 151.844 113.66 152.108 113.924C152.38 114.188 152.696 114.392 153.056 114.536C153.424 114.68 153.828 114.752 154.268 114.752C154.708 114.752 155.116 114.672 155.492 114.512C155.868 114.344 156.208 114.092 156.512 113.756L157.52 114.716C157.128 115.172 156.648 115.52 156.08 115.76C155.512 116 154.88 116.12 154.184 116.12ZM164.919 107.6H166.479V116H164.919V107.6ZM160.575 116H159.015V107.6H160.575V116ZM165.039 112.4H160.443V111.068H165.039V112.4Z" fill="#222222"/>
<g filter="url(#filter2_d_1_1061)">
<path d="M84.7542 96L81.6229 80.0409L96 87.9182L88.9181 89.9727L84.7542 96Z" fill="#F3CAA2"/>
<path d="M84.7542 96L81.6229 80.0409L96 87.9182L88.9181 89.9727L84.7542 96Z" stroke="#E1B58A"/>
</g>
<rect x="374.5" y="76.5" width="81" height="30" rx="5.5" fill="#BAE1BA"/>
<rect x="374.5" y="76.5" width="81" height="30" rx="5.5" stroke="#AAD7AA"/>
<path d="M384.74 96.12C383.588 96.12 382.684 95.796 382.028 95.148C381.38 94.5 381.056 93.564 381.056 92.34V87.6H382.616V92.28C382.616 93.144 382.8 93.772 383.168 94.164C383.544 94.556 384.072 94.752 384.752 94.752C385.432 94.752 385.956 94.556 386.324 94.164C386.692 93.772 386.876 93.144 386.876 92.28V87.6H388.412V92.34C388.412 93.564 388.084 94.5 387.428 95.148C386.78 95.796 385.884 96.12 384.74 96.12ZM389.46 96L393 91.128V92.304L389.628 87.6H391.392L393.9 91.08L393.18 91.092L395.664 87.6H397.356L394.008 92.22V91.092L397.572 96H395.772L393.132 92.304H393.84L391.236 96H389.46ZM402.116 96V87.6H405.788C406.7 87.6 407.5 87.776 408.188 88.128C408.876 88.48 409.412 88.968 409.796 89.592C410.18 90.216 410.372 90.952 410.372 91.8C410.372 92.64 410.18 93.376 409.796 94.008C409.412 94.632 408.876 95.12 408.188 95.472C407.5 95.824 406.7 96 405.788 96H402.116ZM403.676 94.68H405.716C406.348 94.68 406.892 94.56 407.348 94.32C407.812 94.08 408.168 93.744 408.416 93.312C408.672 92.88 408.8 92.376 408.8 91.8C408.8 91.216 408.672 90.712 408.416 90.288C408.168 89.856 407.812 89.52 407.348 89.28C406.892 89.04 406.348 88.92 405.716 88.92H403.676V94.68ZM413.47 91.092H417.646V92.376H413.47V91.092ZM413.59 94.692H418.33V96H412.03V87.6H418.162V88.908H413.59V94.692ZM422.673 96.12C422.017 96.12 421.389 96.028 420.789 95.844C420.189 95.652 419.713 95.408 419.361 95.112L419.901 93.9C420.237 94.164 420.653 94.384 421.149 94.56C421.645 94.736 422.153 94.824 422.673 94.824C423.113 94.824 423.469 94.776 423.741 94.68C424.013 94.584 424.213 94.456 424.341 94.296C424.469 94.128 424.533 93.94 424.533 93.732C424.533 93.476 424.441 93.272 424.257 93.12C424.073 92.96 423.833 92.836 423.537 92.748C423.249 92.652 422.925 92.564 422.565 92.484C422.213 92.404 421.857 92.312 421.497 92.208C421.145 92.096 420.821 91.956 420.525 91.788C420.237 91.612 420.001 91.38 419.817 91.092C419.633 90.804 419.541 90.436 419.541 89.988C419.541 89.532 419.661 89.116 419.901 88.74C420.149 88.356 420.521 88.052 421.017 87.828C421.521 87.596 422.157 87.48 422.925 87.48C423.429 87.48 423.929 87.544 424.425 87.672C424.921 87.8 425.353 87.984 425.721 88.224L425.229 89.436C424.853 89.212 424.465 89.048 424.065 88.944C423.665 88.832 423.281 88.776 422.913 88.776C422.481 88.776 422.129 88.828 421.857 88.932C421.593 89.036 421.397 89.172 421.269 89.34C421.149 89.508 421.089 89.7 421.089 89.916C421.089 90.172 421.177 90.38 421.353 90.54C421.537 90.692 421.773 90.812 422.061 90.9C422.357 90.988 422.685 91.076 423.045 91.164C423.405 91.244 423.761 91.336 424.113 91.44C424.473 91.544 424.797 91.68 425.085 91.848C425.381 92.016 425.617 92.244 425.793 92.532C425.977 92.82 426.069 93.184 426.069 93.624C426.069 94.072 425.945 94.488 425.697 94.872C425.457 95.248 425.085 95.552 424.581 95.784C424.077 96.008 423.441 96.12 422.673 96.12ZM427.616 96V87.6H429.176V96H427.616ZM435.372 96.12C434.716 96.12 434.112 96.016 433.56 95.808C433.016 95.592 432.54 95.292 432.132 94.908C431.724 94.516 431.408 94.056 431.184 93.528C430.96 93 430.848 92.424 430.848 91.8C430.848 91.176 430.96 90.6 431.184 90.072C431.408 89.544 431.724 89.088 432.132 88.704C432.548 88.312 433.032 88.012 433.584 87.804C434.136 87.588 434.74 87.48 435.396 87.48C436.108 87.48 436.748 87.596 437.316 87.828C437.892 88.06 438.376 88.4 438.768 88.848L437.784 89.808C437.456 89.48 437.1 89.24 436.716 89.088C436.34 88.928 435.924 88.848 435.468 88.848C435.028 88.848 434.62 88.92 434.244 89.064C433.868 89.208 433.544 89.412 433.272 89.676C433 89.94 432.788 90.252 432.636 90.612C432.492 90.972 432.42 91.368 432.42 91.8C432.42 92.224 432.492 92.616 432.636 92.976C432.788 93.336 433 93.652 433.272 93.924C433.544 94.188 433.864 94.392 434.232 94.536C434.6 94.68 435.008 94.752 435.456 94.752C435.872 94.752 436.272 94.688 436.656 94.56C437.048 94.424 437.42 94.2 437.772 93.888L438.66 95.052C438.22 95.404 437.708 95.672 437.124 95.856C436.548 96.032 435.964 96.12 435.372 96.12ZM437.184 94.848V91.704H438.66V95.052L437.184 94.848ZM440.718 96V87.6H442.002L447.27 94.068H446.634V87.6H448.182V96H446.898L441.63 89.532H442.266V96H440.718Z" fill="#222222"/>
<g filter="url(#filter3_d_1_1061)">
<path d="M365.754 76L362.623 60.0409L377 67.9182L369.918 69.9727L365.754 76Z" fill="#BAE1BA"/>
<path d="M365.754 76L362.623 60.0409L377 67.9182L369.918 69.9727L365.754 76Z" stroke="#AAD7AA"/>
</g>
<rect x="489" y="25.5" width="102" height="30" rx="5.5" fill="#F4B7E6"/>
<rect x="489" y="25.5" width="102" height="30" rx="5.5" stroke="#DDA7D0"/>
<path d="M495.628 45V36.6H499.084C499.828 36.6 500.464 36.72 500.992 36.96C501.528 37.2 501.94 37.544 502.228 37.992C502.516 38.44 502.66 38.972 502.66 39.588C502.66 40.204 502.516 40.736 502.228 41.184C501.94 41.632 501.528 41.976 500.992 42.216C500.464 42.456 499.828 42.576 499.084 42.576H496.492L497.188 41.844V45H495.628ZM497.188 42.012L496.492 41.256H499.012C499.7 41.256 500.216 41.112 500.56 40.824C500.912 40.528 501.088 40.116 501.088 39.588C501.088 39.052 500.912 38.64 500.56 38.352C500.216 38.064 499.7 37.92 499.012 37.92H496.492L497.188 37.152V42.012ZM504.218 45V36.6H507.674C508.418 36.6 509.054 36.72 509.582 36.96C510.118 37.2 510.53 37.544 510.818 37.992C511.106 38.44 511.25 38.972 511.25 39.588C511.25 40.204 511.106 40.736 510.818 41.184C510.53 41.624 510.118 41.964 509.582 42.204C509.054 42.436 508.418 42.552 507.674 42.552H505.082L505.778 41.844V45H504.218ZM509.714 45L507.59 41.952H509.258L511.394 45H509.714ZM505.778 42.012L505.082 41.268H507.602C508.29 41.268 508.806 41.12 509.15 40.824C509.502 40.528 509.678 40.116 509.678 39.588C509.678 39.052 509.502 38.64 509.15 38.352C508.806 38.064 508.29 37.92 507.602 37.92H505.082L505.778 37.152V42.012ZM516.931 45.12C516.275 45.12 515.671 45.012 515.119 44.796C514.567 44.58 514.087 44.28 513.679 43.896C513.271 43.504 512.955 43.048 512.731 42.528C512.507 42 512.395 41.424 512.395 40.8C512.395 40.176 512.507 39.604 512.731 39.084C512.955 38.556 513.271 38.1 513.679 37.716C514.087 37.324 514.567 37.02 515.119 36.804C515.671 36.588 516.271 36.48 516.919 36.48C517.575 36.48 518.175 36.588 518.719 36.804C519.271 37.02 519.751 37.324 520.159 37.716C520.567 38.1 520.883 38.556 521.107 39.084C521.331 39.604 521.443 40.176 521.443 40.8C521.443 41.424 521.331 42 521.107 42.528C520.883 43.056 520.567 43.512 520.159 43.896C519.751 44.28 519.271 44.58 518.719 44.796C518.175 45.012 517.579 45.12 516.931 45.12ZM516.919 43.752C517.343 43.752 517.735 43.68 518.095 43.536C518.455 43.392 518.767 43.188 519.031 42.924C519.295 42.652 519.499 42.34 519.643 41.988C519.795 41.628 519.871 41.232 519.871 40.8C519.871 40.368 519.795 39.976 519.643 39.624C519.499 39.264 519.295 38.952 519.031 38.688C518.767 38.416 518.455 38.208 518.095 38.064C517.735 37.92 517.343 37.848 516.919 37.848C516.495 37.848 516.103 37.92 515.743 38.064C515.391 38.208 515.079 38.416 514.807 38.688C514.543 38.952 514.335 39.264 514.183 39.624C514.039 39.976 513.967 40.368 513.967 40.8C513.967 41.224 514.039 41.616 514.183 41.976C514.335 42.336 514.543 42.652 514.807 42.924C515.071 43.188 515.383 43.392 515.743 43.536C516.103 43.68 516.495 43.752 516.919 43.752ZM524.684 45V37.92H521.9V36.6H529.028V37.92H526.244V45H524.684ZM534.017 45.12C533.361 45.12 532.757 45.012 532.205 44.796C531.653 44.58 531.173 44.28 530.765 43.896C530.357 43.504 530.041 43.048 529.817 42.528C529.593 42 529.481 41.424 529.481 40.8C529.481 40.176 529.593 39.604 529.817 39.084C530.041 38.556 530.357 38.1 530.765 37.716C531.173 37.324 531.653 37.02 532.205 36.804C532.757 36.588 533.357 36.48 534.005 36.48C534.661 36.48 535.261 36.588 535.805 36.804C536.357 37.02 536.837 37.324 537.245 37.716C537.653 38.1 537.969 38.556 538.193 39.084C538.417 39.604 538.529 40.176 538.529 40.8C538.529 41.424 538.417 42 538.193 42.528C537.969 43.056 537.653 43.512 537.245 43.896C536.837 44.28 536.357 44.58 535.805 44.796C535.261 45.012 534.665 45.12 534.017 45.12ZM534.005 43.752C534.429 43.752 534.821 43.68 535.181 43.536C535.541 43.392 535.853 43.188 536.117 42.924C536.381 42.652 536.585 42.34 536.729 41.988C536.881 41.628 536.957 41.232 536.957 40.8C536.957 40.368 536.881 39.976 536.729 39.624C536.585 39.264 536.381 38.952 536.117 38.688C535.853 38.416 535.541 38.208 535.181 38.064C534.821 37.92 534.429 37.848 534.005 37.848C533.581 37.848 533.189 37.92 532.829 38.064C532.477 38.208 532.165 38.416 531.893 38.688C531.629 38.952 531.421 39.264 531.269 39.624C531.125 39.976 531.053 40.368 531.053 40.8C531.053 41.224 531.125 41.616 531.269 41.976C531.421 42.336 531.629 42.652 531.893 42.924C532.157 43.188 532.469 43.392 532.829 43.536C533.189 43.68 533.581 43.752 534.005 43.752ZM541.77 45V37.92H538.986V36.6H546.114V37.92H543.33V45H541.77ZM549.219 45V41.676L549.567 42.636L545.919 36.6H547.587L550.515 41.46H549.579L552.531 36.6H554.067L550.419 42.636L550.779 41.676V45H549.219ZM554.983 45V36.6H558.439C559.183 36.6 559.819 36.72 560.347 36.96C560.883 37.2 561.295 37.544 561.583 37.992C561.871 38.44 562.015 38.972 562.015 39.588C562.015 40.204 561.871 40.736 561.583 41.184C561.295 41.632 560.883 41.976 560.347 42.216C559.819 42.456 559.183 42.576 558.439 42.576H555.847L556.543 41.844V45H554.983ZM556.543 42.012L555.847 41.256H558.367C559.055 41.256 559.571 41.112 559.915 40.824C560.267 40.528 560.443 40.116 560.443 39.588C560.443 39.052 560.267 38.64 559.915 38.352C559.571 38.064 559.055 37.92 558.367 37.92H555.847L556.543 37.152V42.012ZM563.573 45V36.6H565.133V45H563.573ZM567.405 45V36.6H568.689L573.957 43.068H573.321V36.6H574.869V45H573.585L568.317 38.532H568.953V45H567.405ZM581.044 45.12C580.388 45.12 579.784 45.016 579.232 44.808C578.688 44.592 578.212 44.292 577.804 43.908C577.396 43.516 577.08 43.056 576.856 42.528C576.632 42 576.52 41.424 576.52 40.8C576.52 40.176 576.632 39.6 576.856 39.072C577.08 38.544 577.396 38.088 577.804 37.704C578.22 37.312 578.704 37.012 579.256 36.804C579.808 36.588 580.412 36.48 581.068 36.48C581.78 36.48 582.42 36.596 582.988 36.828C583.564 37.06 584.048 37.4 584.44 37.848L583.456 38.808C583.128 38.48 582.772 38.24 582.388 38.088C582.012 37.928 581.596 37.848 581.14 37.848C580.7 37.848 580.292 37.92 579.916 38.064C579.54 38.208 579.216 38.412 578.944 38.676C578.672 38.94 578.46 39.252 578.308 39.612C578.164 39.972 578.092 40.368 578.092 40.8C578.092 41.224 578.164 41.616 578.308 41.976C578.46 42.336 578.672 42.652 578.944 42.924C579.216 43.188 579.536 43.392 579.904 43.536C580.272 43.68 580.68 43.752 581.128 43.752C581.544 43.752 581.944 43.688 582.328 43.56C582.72 43.424 583.092 43.2 583.444 42.888L584.332 44.052C583.892 44.404 583.38 44.672 582.796 44.856C582.22 45.032 581.636 45.12 581.044 45.12ZM582.856 43.848V40.704H584.332V44.052L582.856 43.848Z" fill="#222222"/>
<g filter="url(#filter4_d_1_1061)">
<path d="M480.254 25L477.123 9.04089L491.5 16.9182L484.418 18.9727L480.254 25Z" fill="#F4B7E6"/>
<path d="M480.254 25L477.123 9.04089L491.5 16.9182L484.418 18.9727L480.254 25Z" stroke="#DDA7D0"/>
</g>
<defs>
<filter id="filter0_d_1_1061" x="3.4249" y="2.09058" width="20.3719" height="22.1733" filterUnits="userSpaceOnUse" color-interpolation-filters="sRGB">
<feFlood flood-opacity="0" result="BackgroundImageFix"/>
<feColorMatrix in="SourceAlpha" type="matrix" values="0 0 0 0 0 0 0 0 0 0 0 0 0 0 0 0 0 0 127 0" result="hardAlpha"/>
<feOffset dy="1"/>
<feGaussianBlur stdDeviation="1"/>
<feComposite in2="hardAlpha" operator="out"/>
<feColorMatrix type="matrix" values="0 0 0 0 0 0 0 0 0 0 0 0 0 0 0 0 0 0 0.25 0"/>
<feBlend mode="normal" in2="BackgroundImageFix" result="effect1_dropShadow_1_1061"/>
<feBlend mode="normal" in="SourceGraphic" in2="effect1_dropShadow_1_1061" result="shape"/>
</filter>
<filter id="filter1_d_1_1061" x="182.425" y="22.0906" width="20.3719" height="22.1733" filterUnits="userSpaceOnUse" color-interpolation-filters="sRGB">
<feFlood flood-opacity="0" result="BackgroundImageFix"/>
<feColorMatrix in="SourceAlpha" type="matrix" values="0 0 0 0 0 0 0 0 0 0 0 0 0 0 0 0 0 0 127 0" result="hardAlpha"/>
<feOffset dy="1"/>
<feGaussianBlur stdDeviation="1"/>
<feComposite in2="hardAlpha" operator="out"/>
<feColorMatrix type="matrix" values="0 0 0 0 0 0 0 0 0 0 0 0 0 0 0 0 0 0 0.25 0"/>
<feBlend mode="normal" in2="BackgroundImageFix" result="effect1_dropShadow_1_1061"/>
<feBlend mode="normal" in="SourceGraphic" in2="effect1_dropShadow_1_1061" result="shape"/>
</filter>
<filter id="filter2_d_1_1061" x="78.9249" y="78.0906" width="20.3719" height="22.1733" filterUnits="userSpaceOnUse" color-interpolation-filters="sRGB">
<feFlood flood-opacity="0" result="BackgroundImageFix"/>
<feColorMatrix in="SourceAlpha" type="matrix" values="0 0 0 0 0 0 0 0 0 0 0 0 0 0 0 0 0 0 127 0" result="hardAlpha"/>
<feOffset dy="1"/>
<feGaussianBlur stdDeviation="1"/>
<feComposite in2="hardAlpha" operator="out"/>
<feColorMatrix type="matrix" values="0 0 0 0 0 0 0 0 0 0 0 0 0 0 0 0 0 0 0.25 0"/>
<feBlend mode="normal" in2="BackgroundImageFix" result="effect1_dropShadow_1_1061"/>
<feBlend mode="normal" in="SourceGraphic" in2="effect1_dropShadow_1_1061" result="shape"/>
</filter>
<filter id="filter3_d_1_1061" x="359.925" y="58.0906" width="20.3719" height="22.1733" filterUnits="userSpaceOnUse" color-interpolation-filters="sRGB">
<feFlood flood-opacity="0" result="BackgroundImageFix"/>
<feColorMatrix in="SourceAlpha" type="matrix" values="0 0 0 0 0 0 0 0 0 0 0 0 0 0 0 0 0 0 127 0" result="hardAlpha"/>
<feOffset dy="1"/>
<feGaussianBlur stdDeviation="1"/>
<feComposite in2="hardAlpha" operator="out"/>
<feColorMatrix type="matrix" values="0 0 0 0 0 0 0 0 0 0 0 0 0 0 0 0 0 0 0.25 0"/>
<feBlend mode="normal" in2="BackgroundImageFix" result="effect1_dropShadow_1_1061"/>
<feBlend mode="normal" in="SourceGraphic" in2="effect1_dropShadow_1_1061" result="shape"/>
</filter>
<filter id="filter4_d_1_1061" x="474.425" y="7.09058" width="20.3719" height="22.1733" filterUnits="userSpaceOnUse" color-interpolation-filters="sRGB">
<feFlood flood-opacity="0" result="BackgroundImageFix"/>
<feColorMatrix in="SourceAlpha" type="matrix" values="0 0 0 0 0 0 0 0 0 0 0 0 0 0 0 0 0 0 127 0" result="hardAlpha"/>
<feOffset dy="1"/>
<feGaussianBlur stdDeviation="1"/>
<feComposite in2="hardAlpha" operator="out"/>
<feColorMatrix type="matrix" values="0 0 0 0 0 0 0 0 0 0 0 0 0 0 0 0 0 0 0.25 0"/>
<feBlend mode="normal" in2="BackgroundImageFix" result="effect1_dropShadow_1_1061"/>
<feBlend mode="normal" in="SourceGraphic" in2="effect1_dropShadow_1_1061" result="shape"/>
</filter>
</defs>
</svg>
