<svg width="32" height="32" viewBox="0 0 32 32" fill="none" xmlns="http://www.w3.org/2000/svg">
<path d="M26.3335 0.400879H5.66651C2.53051 0.400879 -0.000488281 2.93188 -0.000488281 6.06788V25.9319C-0.000488281 29.0679 2.53051 31.5989 5.66651 31.5989H26.3335C29.4695 31.5989 32.0005 29.0679 32.0005 25.9319V6.06788C32.0005 2.93188 29.4695 0.400879 26.3335 0.400879ZM30.6515 25.4119C30.6675 28.0879 28.5005 30.2649 25.8285 30.2649H6.17251C3.50551 30.2649 1.33351 28.0929 1.33351 25.4259V6.57288C1.33351 3.90588 3.50551 1.73388 6.17251 1.73388H25.8125C28.4845 1.73388 30.6515 3.90088 30.6515 6.57288V25.4119ZM12.6515 14.9999L16.3865 22.1719C16.4545 22.2809 16.4135 22.3849 16.3075 22.3849H13.9845C13.8395 22.3849 13.7715 22.3489 13.7085 22.2129C12.8555 20.4529 11.9845 18.6929 11.0935 16.8019H11.0685C10.2655 18.5869 9.38551 20.4689 8.53151 22.2289C8.47051 22.3329 8.40251 22.3739 8.29251 22.3739H6.09351C5.95851 22.3739 5.94851 22.2649 6.01651 22.1869L9.66751 15.2279L6.13651 8.18688C6.05251 8.07788 6.13651 7.99888 6.21351 7.99888H8.50551C8.64051 7.99888 8.69351 8.02588 8.74551 8.14388C9.58851 9.90488 10.4375 11.7169 11.2405 13.4929H11.2655C12.0415 11.7329 12.8965 9.90488 13.7185 8.15988C13.7865 8.05088 13.8275 7.98288 13.9585 7.98288H16.1035C16.2125 7.98288 16.2545 8.06688 16.1875 8.17088L12.6515 14.9999ZM17.0415 17.1719C17.0415 14.0679 19.1045 11.6399 22.3855 11.6399C22.6665 11.6399 22.8125 11.6399 23.0785 11.6669V8.13588C23.0785 8.05188 23.1455 7.99988 23.2135 7.99988H25.3175C25.4265 7.99988 25.4535 8.04088 25.4535 8.10388V20.3489C25.4535 20.7079 25.4535 21.1609 25.5215 21.6499C25.5215 21.7339 25.4945 21.7589 25.4125 21.8019C24.2925 22.3329 23.1205 22.5729 22.0005 22.5729C19.1045 22.5879 17.0415 20.8019 17.0415 17.1719ZM23.0795 13.7599C22.8965 13.6829 22.6265 13.6249 22.3075 13.6249C20.6265 13.6249 19.4545 14.9209 19.4545 17.0679C19.4545 19.5209 20.6515 20.5049 22.1625 20.5049C22.4795 20.5049 22.8295 20.4689 23.0795 20.3599V13.7599Z" fill="#222222"/>
</svg>
